<?xml version="1.0" encoding="iso-8859-1"?>
<!-- Generator: Adobe Illustrator 20.1.0, SVG Export Plug-In . SVG Version: 6.00 Build 0)  -->
<svg xmlns="http://www.w3.org/2000/svg" xmlns:xlink="http://www.w3.org/1999/xlink" version="1.1" id="&#1057;&#1083;&#1086;&#1081;_1" x="0px" y="0px" viewBox="0 0 64 64" style="enable-background:new 0 0 64 64;" xml:space="preserve">
<linearGradient id="SVGID_1__44825" gradientUnits="userSpaceOnUse" x1="32" y1="38.75" x2="32" y2="52.3077" spreadMethod="reflect">
	<stop offset="0" style="stop-color:#6DC7FF"/>
	<stop offset="1" style="stop-color:#E6ABFF"/>
</linearGradient>
<path style="fill:url(#SVGID_1__44825);" d="M45.178,52H18.822c-0.943,0-1.364-1.185-0.632-1.779l12.549-10.196  c0.735-0.597,1.787-0.597,2.522,0L45.81,50.221C46.542,50.815,46.121,52,45.178,52z"/>
<linearGradient id="SVGID_2__44825" gradientUnits="userSpaceOnUse" x1="32" y1="6" x2="32" y2="59.5093" spreadMethod="reflect">
	<stop offset="0" style="stop-color:#1A6DFF"/>
	<stop offset="1" style="stop-color:#C822FF"/>
</linearGradient>
<path style="fill:url(#SVGID_2__44825);" d="M55.12,26.706L52,23.586V13.011C52,11.351,50.649,10,48.989,10H48V9.011  C48,7.351,46.649,6,44.989,6H19.011C17.351,6,16,7.351,16,9.011V10h-0.989C13.351,10,12,11.351,12,13.011v10.575l-3.12,3.12  C8.312,27.273,8,28.027,8,28.83V53c0,2.757,2.243,5,5,5h38c2.757,0,5-2.243,5-5V28.83C56,28.027,55.687,27.273,55.12,26.706z   M28.875,34.219l-0.115,0.092C28.281,33.643,28,32.851,28,32c0-2.206,1.794-4,4-4s4,1.794,4,4c0,0.842-0.262,1.641-0.749,2.32  l-0.127-0.102C33.286,32.748,30.715,32.748,28.875,34.219z M32,26c-3.309,0-6,2.691-6,6c0,1.315,0.426,2.551,1.186,3.57  l-3.936,3.148l-1.25-1V16.924c2.587-0.398,4.525-2.337,4.924-4.924h10.152c0.398,2.587,2.337,4.525,4.924,4.924v20.795l-1.25,1  l-3.933-3.146C37.59,34.534,38,33.3,38,32C38,28.691,35.309,26,32,26z M21.648,40L10,49.319V30.682L21.648,40z M54,30.681v18.638  L42.351,40L54,30.681z M53.706,28.12c0.044,0.044,0.067,0.102,0.102,0.152L52,29.718v-3.304L53.706,28.12z M48.989,12  C49.547,12,50,12.453,50,13.011v18.308l-2,1.6V12H48.989z M19.011,8h25.979C45.547,8,46,8.453,46,9.011v25.508l-2,1.6V15h-1  c-2.317,0-4-1.683-4-4v-1H25v1c0,2.317-1.683,4-4,4h-1v21.119l-2-1.6V9.011C18,8.453,18.453,8,19.011,8z M15.011,12H16v20.919  l-2-1.6V13.011C14,12.453,14.453,12,15.011,12z M12,26.414v3.305l-1.808-1.447c0.035-0.05,0.058-0.108,0.102-0.152L12,26.414z   M51,56H13c-1.654,0-3-1.346-3-3v-1.118l20.124-16.101c1.105-0.883,2.647-0.883,3.751,0L54,51.881V53C54,54.654,52.654,56,51,56z"/>
</svg>
