<?xml version="1.0" encoding="iso-8859-1"?>
<!-- Generator: Adobe Illustrator 20.1.0, SVG Export Plug-In . SVG Version: 6.00 Build 0)  -->
<svg xmlns="http://www.w3.org/2000/svg" xmlns:xlink="http://www.w3.org/1999/xlink" version="1.1" id="&#1057;&#1083;&#1086;&#1081;_1" x="0px" y="0px" viewBox="0 0 64 64" style="enable-background:new 0 0 64 64;" xml:space="preserve">
<linearGradient id="SVGID_1__49457" gradientUnits="userSpaceOnUse" x1="20" y1="25.3333" x2="20" y2="34.5015" spreadMethod="reflect">
	<stop offset="0" style="stop-color:#6DC7FF"/>
	<stop offset="1" style="stop-color:#E6ABFF"/>
</linearGradient>
<path style="fill:url(#SVGID_1__49457);" d="M23,31c0,1.657-1.343,3-3,3h0c-1.657,0-3-1.343-3-3v-2c0-1.657,1.343-3,3-3h0  c1.657,0,3,1.343,3,3V31z"/>
<linearGradient id="SVGID_2__49457" gradientUnits="userSpaceOnUse" x1="38" y1="25.3333" x2="38" y2="34.5015" spreadMethod="reflect">
	<stop offset="0" style="stop-color:#6DC7FF"/>
	<stop offset="1" style="stop-color:#E6ABFF"/>
</linearGradient>
<path style="fill:url(#SVGID_2__49457);" d="M41,31c0,1.657-1.343,3-3,3h0c-1.657,0-3-1.343-3-3v-2c0-1.657,1.343-3,3-3h0  c1.657,0,3,1.343,3,3V31z"/>
<linearGradient id="SVGID_3__49457" gradientUnits="userSpaceOnUse" x1="32" y1="7.5" x2="32" y2="56.4586" spreadMethod="reflect">
	<stop offset="0" style="stop-color:#1A6DFF"/>
	<stop offset="1" style="stop-color:#C822FF"/>
</linearGradient>
<path style="fill:url(#SVGID_3__49457);" d="M58,45c0-1.528-0.894-2.94-2.312-3.559c0.548-1.463,0.19-3.119-0.91-4.22  c-1.103-1.101-2.762-1.458-4.181-0.945c-0.158-0.332-0.362-0.634-0.598-0.904v-4.557c1.162-0.414,2-1.514,2-2.816v-6  c0-2.757-2.243-5-5-5h-6v-1c0-1.103-0.897-2-2-2h-1v-1c0-2.757-2.243-5-5-5h-8c-2.757,0-5,2.243-5,5v1h-1c-1.103,0-2,0.897-2,2v1h-6  c-2.757,0-5,2.243-5,5v6c0,1.302,0.838,2.402,2,2.816V41v3v4c0,1.654,1.346,3,3,3h27.205c0.178,0.66,0.516,1.278,1.016,1.779  c1.102,1.1,2.758,1.456,4.181,0.945C44.061,55.106,45.473,56,47,56s2.939-0.894,3.559-2.312c1.461,0.547,3.117,0.191,4.22-0.91  c1.101-1.101,1.458-2.757,0.944-4.18C57.106,47.94,58,46.528,58,45z M38.277,41.402C36.894,42.06,36,43.472,36,45H11  c-0.552,0-1-0.449-1-1v-1h8v-2h-8v-2h6v-2h-6v-6h6c0,2.206,1.794,4,4,4s4-1.794,4-4h10c0,2.206,1.794,4,4,4s4-1.794,4-4h6v3.136  C47.677,34.051,47.342,34,47,34c-1.527,0-2.939,0.894-3.559,2.312c-1.46-0.546-3.117-0.192-4.22,0.91  C38.121,38.322,37.764,39.979,38.277,41.402z M22,31c0,1.103-0.897,2-2,2s-2-0.897-2-2v-2c0-1.103,0.897-2,2-2s2,0.897,2,2V31z   M36,31v-2c0-1.103,0.897-2,2-2s2,0.897,2,2v2c0,1.103-0.897,2-2,2S36,32.103,36,31z M39,17h-4v-1h4V17z M22,13c0-1.654,1.346-3,3-3  h8c1.654,0,3,1.346,3,3v1h-1c-1.103,0-2,0.897-2,2v1h-8v-1c0-1.103-0.897-2-2-2h-1V13z M19,16h4v1h-4V16z M8,22c0-1.654,1.346-3,3-3  h36c1.654,0,3,1.346,3,3v6c0,0.551-0.448,1-1,1h-7c0-2.206-1.794-4-4-4s-4,1.794-4,4H24c0-2.206-1.794-4-4-4s-4,1.794-4,4H9  c-0.552,0-1-0.449-1-1V22z M10,48v-1.184C10.314,46.928,10.648,47,11,47h25.558c0.402,0.674,1,1.23,1.753,1.559  c-0.054,0.145-0.093,0.293-0.13,0.441H11C10.448,49,10,48.551,10,48z M54.864,46.792c-0.956,0.454-1.406,1.515-1.049,2.469  c0.273,0.73,0.097,1.556-0.451,2.103c-0.547,0.547-1.369,0.727-2.104,0.452c-0.952-0.358-2.015,0.094-2.468,1.048  C48.459,53.564,47.771,54,47,54s-1.459-0.436-1.792-1.136c-0.349-0.734-1.057-1.171-1.799-1.171c-0.223,0-0.449,0.04-0.669,0.122  c-0.733,0.274-1.558,0.096-2.104-0.451c-0.548-0.548-0.725-1.374-0.451-2.104c0.357-0.954-0.093-2.015-1.048-2.468  C38.436,46.458,38,45.772,38,45s0.436-1.458,1.136-1.792c0.956-0.454,1.406-1.515,1.049-2.469c-0.273-0.73-0.097-1.556,0.451-2.103  s1.372-0.726,2.104-0.452c0.95,0.356,2.014-0.094,2.468-1.048C45.541,36.436,46.229,36,47,36s1.459,0.436,1.792,1.136  c0.454,0.955,1.518,1.406,2.468,1.049c0.734-0.275,1.557-0.096,2.104,0.451c0.548,0.548,0.725,1.374,0.451,2.104  c-0.357,0.954,0.093,2.015,1.048,2.468C55.564,43.542,56,44.228,56,45S55.564,46.458,54.864,46.792z"/>
</svg>
