<?xml version="1.0" encoding="iso-8859-1"?>
<!-- Generator: Adobe Illustrator 20.1.0, SVG Export Plug-In . SVG Version: 6.00 Build 0)  -->
<svg xmlns="http://www.w3.org/2000/svg" xmlns:xlink="http://www.w3.org/1999/xlink" version="1.1" id="&#1057;&#1083;&#1086;&#1081;_1" x="0px" y="0px" viewBox="0 0 64 64" style="enable-background:new 0 0 64 64;" xml:space="preserve">
<linearGradient id="SVGID_1__43675" gradientUnits="userSpaceOnUse" x1="37" y1="28.75" x2="37" y2="35.0013" spreadMethod="reflect">
	<stop offset="0" style="stop-color:#6DC7FF"/>
	<stop offset="1" style="stop-color:#E6ABFF"/>
</linearGradient>
<path style="fill:url(#SVGID_1__43675);" d="M43,33c0,0.552-0.448,1-1,1H32c-0.552,0-1-0.448-1-1v-2c0-0.552,0.448-1,1-1h10  c0.552,0,1,0.448,1,1V33z"/>
<linearGradient id="SVGID_2__43675" gradientUnits="userSpaceOnUse" x1="32" y1="4.342" x2="32" y2="58.8043" spreadMethod="reflect">
	<stop offset="0" style="stop-color:#1A6DFF"/>
	<stop offset="1" style="stop-color:#C822FF"/>
</linearGradient>
<path style="fill:url(#SVGID_2__43675);" d="M47,6c-4.83,0-8.87,3.44-9.8,8H10c-1.65,0-3,1.35-3,3c0,1.3,0.84,2.4,2,2.82V44  c0,1.65,1.35,3,3,3h9.74c-0.03,0.09-0.07,0.18-0.09,0.27l-2.59,10.49L20.03,58h1.03l1.23-5h15.19l1.24,5h0.98l0.92-0.22l-2.49-10.51  c-0.03-0.09-0.06-0.18-0.08-0.27H46c1.65,0,3-1.35,3-3V25.8c4.56-0.93,8-4.97,8-9.8C57,10.49,52.51,6,47,6z M9,17c0-0.55,0.45-1,1-1  h27c0,0.68,0.07,1.35,0.2,2H10C9.45,18,9,17.55,9,17z M22.79,51l0.8-3.25C23.7,47.31,24.1,47,24.56,47H35c1,0,1.08,0.31,1.18,0.73  L36.99,51H22.79z M26,45v-1h8v1H26z M47,44c0,0.55-0.45,1-1,1H36v-1c0-1.1-0.9-2-2-2h-8c-1.1,0-2,0.9-2,2v1H12c-0.55,0-1-0.45-1-1  V20h26.84c1.55,3.53,5.07,6,9.16,6V44z M47,24c-4.41,0-8-3.59-8-8c0-4.41,3.59-8,8-8s8,3.59,8,8C55,20.41,51.41,24,47,24z"/>
<linearGradient id="SVGID_3__43675" gradientUnits="userSpaceOnUse" x1="47" y1="4.3333" x2="47" y2="59.0472" spreadMethod="reflect">
	<stop offset="0" style="stop-color:#1A6DFF"/>
	<stop offset="1" style="stop-color:#C822FF"/>
</linearGradient>
<rect x="46" y="16" style="fill:url(#SVGID_3__43675);" width="2" height="6"/>
<linearGradient id="SVGID_4__43675" gradientUnits="userSpaceOnUse" x1="47" y1="4.3333" x2="47" y2="59.0472" spreadMethod="reflect">
	<stop offset="0" style="stop-color:#1A6DFF"/>
	<stop offset="1" style="stop-color:#C822FF"/>
</linearGradient>
<circle style="fill:url(#SVGID_4__43675);" cx="47" cy="11.999" r="2"/>
<linearGradient id="SVGID_5__43675" gradientUnits="userSpaceOnUse" x1="21" y1="4.3333" x2="21" y2="59.0472" spreadMethod="reflect">
	<stop offset="0" style="stop-color:#1A6DFF"/>
	<stop offset="1" style="stop-color:#C822FF"/>
</linearGradient>
<rect x="15" y="24" style="fill:url(#SVGID_5__43675);" width="12" height="2"/>
<linearGradient id="SVGID_6__43675" gradientUnits="userSpaceOnUse" x1="21" y1="4.3333" x2="21" y2="59.0472" spreadMethod="reflect">
	<stop offset="0" style="stop-color:#1A6DFF"/>
	<stop offset="1" style="stop-color:#C822FF"/>
</linearGradient>
<rect x="15" y="28" style="fill:url(#SVGID_6__43675);" width="12" height="2"/>
<linearGradient id="SVGID_7__43675" gradientUnits="userSpaceOnUse" x1="21" y1="4.3333" x2="21" y2="59.0472" spreadMethod="reflect">
	<stop offset="0" style="stop-color:#1A6DFF"/>
	<stop offset="1" style="stop-color:#C822FF"/>
</linearGradient>
<rect x="15" y="32" style="fill:url(#SVGID_7__43675);" width="12" height="2"/>
<linearGradient id="SVGID_8__43675" gradientUnits="userSpaceOnUse" x1="21" y1="4.3333" x2="21" y2="59.0472" spreadMethod="reflect">
	<stop offset="0" style="stop-color:#1A6DFF"/>
	<stop offset="1" style="stop-color:#C822FF"/>
</linearGradient>
<rect x="15" y="36" style="fill:url(#SVGID_8__43675);" width="12" height="2"/>
<linearGradient id="SVGID_9__43675" gradientUnits="userSpaceOnUse" x1="37" y1="4.3333" x2="37" y2="59.0472" spreadMethod="reflect">
	<stop offset="0" style="stop-color:#1A6DFF"/>
	<stop offset="1" style="stop-color:#C822FF"/>
</linearGradient>
<rect x="31" y="36" style="fill:url(#SVGID_9__43675);" width="12" height="2"/>
</svg>
