<?xml version="1.0" encoding="iso-8859-1"?>
<!-- Generator: Adobe Illustrator 20.1.0, SVG Export Plug-In . SVG Version: 6.00 Build 0)  -->
<svg xmlns="http://www.w3.org/2000/svg" xmlns:xlink="http://www.w3.org/1999/xlink" version="1.1" id="&#1057;&#1083;&#1086;&#1081;_1" x="0px" y="0px" viewBox="0 0 64 64" style="enable-background:new 0 0 64 64;" xml:space="preserve">
<linearGradient id="SVGID_1__43986" gradientUnits="userSpaceOnUse" x1="10" y1="10.6667" x2="10" y2="52" spreadMethod="reflect">
	<stop offset="0" style="stop-color:#1A6DFF"/>
	<stop offset="1" style="stop-color:#C822FF"/>
</linearGradient>
<rect x="6" y="25" style="fill:url(#SVGID_1__43986);" width="8" height="2"/>
<linearGradient id="SVGID_2__43986" gradientUnits="userSpaceOnUse" x1="37.0002" y1="10.6667" x2="37.0002" y2="52" spreadMethod="reflect">
	<stop offset="0" style="stop-color:#1A6DFF"/>
	<stop offset="1" style="stop-color:#C822FF"/>
</linearGradient>
<path style="fill:url(#SVGID_2__43986);" d="M47.934,52c-0.524,0-1.053-0.126-1.541-0.381l-8.78-4.584c-0.383-0.201-0.842-0.201-1.225,0  l-8.78,4.584c-1.13,0.59-2.469,0.488-3.496-0.262c-1.02-0.743-1.52-1.975-1.306-3.214l1.678-9.708  c0.071-0.419-0.068-0.846-0.375-1.143l-7.104-6.876c-0.908-0.879-1.231-2.17-0.843-3.37c0.39-1.207,1.415-2.07,2.676-2.252  l9.817-1.417c0.428-0.062,0.797-0.327,0.987-0.71l4.39-8.833C34.595,12.704,35.732,12,37,12s2.405,0.703,2.968,1.834l4.39,8.833  c0.19,0.383,0.56,0.648,0.987,0.71l9.816,1.416c1.262,0.183,2.287,1.046,2.677,2.253c0.389,1.2,0.065,2.491-0.843,3.37l-7.104,6.876  c-0.307,0.297-0.446,0.724-0.375,1.144l1.678,9.707c0.214,1.239-0.286,2.471-1.306,3.214C49.306,51.783,48.622,52,47.934,52z   M37,44.884c0.528,0,1.057,0.126,1.538,0.377l8.78,4.584c0.456,0.239,0.976,0.2,1.392-0.104c0.406-0.297,0.599-0.767,0.514-1.259  l-1.678-9.708c-0.185-1.071,0.173-2.163,0.955-2.92l7.104-6.876c0.36-0.35,0.484-0.842,0.331-1.317  c-0.156-0.482-0.553-0.814-1.061-0.889l-9.815-1.415c-1.077-0.155-2.009-0.828-2.493-1.8l-4.39-8.833C37.951,14.271,37.512,14,37,14  c-0.512,0-0.951,0.271-1.177,0.725l-4.39,8.833c-0.484,0.972-1.416,1.645-2.493,1.8l-9.816,1.416  c-0.507,0.073-0.903,0.405-1.06,0.888c-0.153,0.476-0.029,0.968,0.331,1.317l7.104,6.876c0.782,0.757,1.14,1.849,0.955,2.919  l-1.678,9.709c-0.085,0.492,0.107,0.962,0.514,1.259c0.414,0.305,0.935,0.343,1.392,0.104l8.78-4.584  C35.944,45.01,36.472,44.884,37,44.884z"/>
<linearGradient id="SVGID_3__43986" gradientUnits="userSpaceOnUse" x1="19" y1="10.6667" x2="19" y2="52" spreadMethod="reflect">
	<stop offset="0" style="stop-color:#1A6DFF"/>
	<stop offset="1" style="stop-color:#C822FF"/>
</linearGradient>
<rect x="12" y="19" style="fill:url(#SVGID_3__43986);" width="14" height="2"/>
<linearGradient id="SVGID_4__43986" gradientUnits="userSpaceOnUse" x1="11" y1="10.6667" x2="11" y2="52" spreadMethod="reflect">
	<stop offset="0" style="stop-color:#1A6DFF"/>
	<stop offset="1" style="stop-color:#C822FF"/>
</linearGradient>
<rect x="8" y="31" style="fill:url(#SVGID_4__43986);" width="6" height="2"/>
<linearGradient id="SVGID_5__43986" gradientUnits="userSpaceOnUse" x1="15.5" y1="10.6667" x2="15.5" y2="52" spreadMethod="reflect">
	<stop offset="0" style="stop-color:#1A6DFF"/>
	<stop offset="1" style="stop-color:#C822FF"/>
</linearGradient>
<rect x="12" y="37" style="fill:url(#SVGID_5__43986);" width="7" height="2"/>
<linearGradient id="SVGID_6__43986" gradientUnits="userSpaceOnUse" x1="37.0002" y1="20.8333" x2="37.0002" y2="42.0655" spreadMethod="reflect">
	<stop offset="0" style="stop-color:#6DC7FF"/>
	<stop offset="1" style="stop-color:#E6ABFF"/>
</linearGradient>
<path style="fill:url(#SVGID_6__43986);" d="M38.088,22.674l2.305,4.649c0.177,0.356,0.518,0.603,0.913,0.661l5.154,0.745  c0.995,0.144,1.392,1.361,0.672,2.06l-3.729,3.619c-0.286,0.277-0.416,0.677-0.349,1.069l0.88,5.11  c0.17,0.987-0.87,1.739-1.76,1.273l-4.61-2.412c-0.353-0.185-0.776-0.185-1.129,0l-4.61,2.412c-0.89,0.466-1.93-0.287-1.76-1.273  l0.88-5.11c0.067-0.392-0.063-0.792-0.349-1.069l-3.729-3.619c-0.72-0.699-0.323-1.916,0.672-2.06l5.154-0.745  c0.395-0.057,0.737-0.304,0.913-0.661l2.305-4.649C36.357,21.776,37.643,21.776,38.088,22.674z"/>
<linearGradient id="SVGID_7__43986" gradientUnits="userSpaceOnUse" x1="18.5" y1="10.6667" x2="18.5" y2="52" spreadMethod="reflect">
	<stop offset="0" style="stop-color:#1A6DFF"/>
	<stop offset="1" style="stop-color:#C822FF"/>
</linearGradient>
<rect x="16" y="43" style="fill:url(#SVGID_7__43986);" width="5" height="2"/>
</svg>
