<?xml version="1.0" encoding="iso-8859-1"?>
<!-- Generator: Adobe Illustrator 20.1.0, SVG Export Plug-In . SVG Version: 6.00 Build 0)  -->
<svg xmlns="http://www.w3.org/2000/svg" xmlns:xlink="http://www.w3.org/1999/xlink" version="1.1" id="&#1057;&#1083;&#1086;&#1081;_1" x="0px" y="0px" viewBox="0 0 64 64" style="enable-background:new 0 0 64 64;" xml:space="preserve">
<linearGradient id="SVGID_1__52949" gradientUnits="userSpaceOnUse" x1="32" y1="5.75" x2="32" y2="58.4022" spreadMethod="reflect">
	<stop offset="0" style="stop-color:#1A6DFF"/>
	<stop offset="1" style="stop-color:#C822FF"/>
</linearGradient>
<path style="fill:url(#SVGID_1__52949);" d="M48,58H16c-2.757,0-5-2.243-5-5V11c0-2.757,2.243-5,5-5h32c2.757,0,5,2.243,5,5v42  C53,55.757,50.757,58,48,58z M16,8c-1.654,0-3,1.346-3,3v42c0,1.654,1.346,3,3,3h32c1.654,0,3-1.346,3-3V11c0-1.654-1.346-3-3-3H16z  "/>
<linearGradient id="SVGID_2__52949" gradientUnits="userSpaceOnUse" x1="32" y1="5.75" x2="32" y2="58.4022" spreadMethod="reflect">
	<stop offset="0" style="stop-color:#1A6DFF"/>
	<stop offset="1" style="stop-color:#C822FF"/>
</linearGradient>
<path style="fill:url(#SVGID_2__52949);" d="M47,48H17c-1.103,0-2-0.897-2-2V12c0-1.103,0.897-2,2-2h30c1.103,0,2,0.897,2,2v34  C49,47.103,48.103,48,47,48z M17,12v34h30V12H17z"/>
<linearGradient id="SVGID_3__52949" gradientUnits="userSpaceOnUse" x1="32" y1="5.75" x2="32" y2="58.4022" spreadMethod="reflect">
	<stop offset="0" style="stop-color:#1A6DFF"/>
	<stop offset="1" style="stop-color:#C822FF"/>
</linearGradient>
<circle style="fill:url(#SVGID_3__52949);" cx="32" cy="52" r="2"/>
<linearGradient id="SVGID_4__52949" gradientUnits="userSpaceOnUse" x1="32" y1="18.0625" x2="32" y2="40.459" spreadMethod="reflect">
	<stop offset="0" style="stop-color:#6DC7FF"/>
	<stop offset="1" style="stop-color:#E6ABFF"/>
</linearGradient>
<path style="fill:url(#SVGID_4__52949);" d="M32,18c-3.859,0-7,3.141-7,7v11h3v4h2v-4h4v4h2v-4h3V25C39,21.141,35.859,18,32,18z M27,34v-7  h10v7H27z M27,25c0-2.757,2.243-5,5-5s5,2.243,5,5H27z"/>
<linearGradient id="SVGID_5__52949" gradientUnits="userSpaceOnUse" x1="42" y1="18.0625" x2="42" y2="40.459" spreadMethod="reflect">
	<stop offset="0" style="stop-color:#6DC7FF"/>
	<stop offset="1" style="stop-color:#E6ABFF"/>
</linearGradient>
<rect x="41" y="25" style="fill:url(#SVGID_5__52949);" width="2" height="8"/>
<linearGradient id="SVGID_6__52949" gradientUnits="userSpaceOnUse" x1="22" y1="18.0625" x2="22" y2="40.459" spreadMethod="reflect">
	<stop offset="0" style="stop-color:#6DC7FF"/>
	<stop offset="1" style="stop-color:#E6ABFF"/>
</linearGradient>
<rect x="21" y="25" style="fill:url(#SVGID_6__52949);" width="2" height="8"/>
</svg>
