<?xml version="1.0" standalone="no"?>
<!DOCTYPE svg PUBLIC "-//W3C//DTD SVG 20010904//EN"
 "http://www.w3.org/TR/2001/REC-SVG-20010904/DTD/svg10.dtd">
<svg version="1.0" xmlns="http://www.w3.org/2000/svg"
 width="2000.000000pt" height="2000.000000pt" viewBox="0 0 2000.000000 2000.000000"
 preserveAspectRatio="xMidYMid meet">
<metadata>
Created by potrace 1.15, written by Peter Selinger 2001-2017
</metadata>
<g transform="translate(0.000000,2000.000000) scale(0.100000,-0.100000)"
fill="#000000" stroke="none">
<path d="M9495 19994 c-455 -27 -838 -71 -1235 -140 -2686 -468 -5070 -2029
-6597 -4319 -718 -1077 -1229 -2314 -1473 -3565 -23 -118 -44 -222 -48 -230
-3 -8 -5 -18 -4 -22 1 -4 -9 -77 -23 -164 -32 -205 -70 -527 -92 -784 -26
-297 -26 -1244 0 -1540 21 -239 49 -486 78 -688 11 -78 18 -146 14 -151 -3 -5
-2 -11 3 -13 4 -1 22 -84 40 -183 18 -99 49 -254 69 -345 20 -91 36 -174 37
-185 1 -11 4 -22 7 -25 3 -3 16 -48 29 -100 70 -291 208 -731 336 -1070 40
-107 74 -202 76 -210 2 -8 5 -17 8 -20 3 -3 34 -72 69 -155 67 -157 83 -192
203 -445 79 -167 145 -293 272 -520 44 -80 80 -148 78 -153 -1 -4 2 -7 6 -7 5
0 19 -19 32 -42 55 -99 211 -345 326 -515 68 -101 124 -187 124 -192 0 -5 4
-11 9 -13 5 -1 63 -75 128 -163 186 -249 242 -319 445 -556 1079 -1263 2514
-2267 4068 -2847 965 -360 1945 -565 2970 -622 238 -13 862 -13 1100 0 2549
141 4916 1232 6683 3078 935 977 1663 2134 2137 3397 281 749 470 1529 565
2330 53 455 60 580 60 1185 0 605 -7 730 -60 1185 -264 2234 -1263 4290 -2860
5889 -1611 1613 -3713 2623 -5970 2871 -373 41 -509 47 -1030 50 -286 1 -547
1 -580 -1z m5105 -5950 c242 -45 459 -156 638 -328 230 -221 359 -495 387
-822 l7 -81 97 -6 c276 -16 547 -138 759 -341 189 -181 308 -396 369 -666 16
-69 17 -273 21 -2665 2 -1778 0 -2623 -8 -2695 -49 -493 -381 -907 -852 -1065
-211 -70 239 -65 -5393 -65 -5632 0 -5182 -5 -5393 65 -275 92 -499 266 -657
510 -69 105 -86 141 -129 263 -37 107 -60 217 -71 340 l-7 72 -42 0 c-132 0
-370 62 -508 131 -382 193 -640 563 -688 987 -8 69 -10 863 -8 2702 l4 2605
21 85 c32 128 60 205 116 314 193 378 584 643 997 674 47 4 2373 6 5170 5
4582 -3 5093 -4 5170 -19z"/>
<path d="M9275 12184 c-497 -35 -916 -227 -1250 -575 -489 -509 -650 -1246
-419 -1911 197 -566 659 -1009 1229 -1179 196 -58 308 -73 540 -73 224 0 306
10 495 60 587 157 1071 610 1274 1192 183 527 121 1111 -170 1590 -285 469
-782 800 -1319 876 -108 16 -299 25 -380 20z"/>
</g>
</svg>
