<?xml version="1.0" standalone="no"?>
<!DOCTYPE svg PUBLIC "-//W3C//DTD SVG 20010904//EN"
 "http://www.w3.org/TR/2001/REC-SVG-20010904/DTD/svg10.dtd">
<svg version="1.0" xmlns="http://www.w3.org/2000/svg"
 width="512.000000pt" height="512.000000pt" viewBox="0 0 512.000000 512.000000"
 preserveAspectRatio="xMidYMid meet">
<metadata>
Created by potrace 1.15, written by Peter Selinger 2001-2017
</metadata>
<g transform="translate(0.000000,512.000000) scale(0.100000,-0.100000)"
fill="#000000" stroke="none">
<path d="M303 5052 c-86 -74 -272 -269 -286 -299 -33 -73 41 -14 241 191 78
80 142 151 142 156 0 23 -34 6 -97 -48z"/>
<path d="M503 5051 c-104 -90 -480 -475 -488 -500 -12 -37 2 -35 52 7 72 60
533 529 533 541 0 24 -33 8 -97 -48z"/>
<path d="M703 5051 c-112 -97 -680 -674 -687 -699 -23 -71 24 -29 442 391 188
189 342 349 342 356 0 24 -32 8 -97 -48z"/>
<path d="M903 5051 c-116 -100 -880 -875 -888 -899 -22 -72 19 -35 543 491
243 244 442 449 442 455 0 25 -32 10 -97 -47z"/>
<path d="M1103 5051 c-118 -102 -1080 -1075 -1088 -1099 -11 -38 2 -37 52 6
79 66 1133 1127 1133 1140 0 25 -32 10 -97 -47z"/>
<path d="M1303 5051 c-119 -104 -1280 -1275 -1288 -1299 -11 -38 2 -37 52 6
80 67 1333 1327 1333 1340 0 25 -32 10 -97 -47z"/>
<path d="M1503 5051 c-121 -105 -1480 -1475 -1488 -1499 -11 -38 2 -37 52 6
81 68 1533 1527 1533 1540 0 25 -32 10 -97 -47z"/>
<path d="M1703 5051 c-121 -105 -1680 -1675 -1688 -1699 -11 -38 2 -37 52 6
81 68 1733 1727 1733 1740 0 25 -32 10 -97 -47z"/>
<path d="M1903 5051 c-122 -106 -1881 -1875 -1888 -1899 -11 -38 2 -37 52 6
82 69 1933 1927 1933 1940 0 25 -32 10 -97 -47z"/>
<path d="M2133 5078 c-60 -50 -1999 -1986 -2064 -2061 -56 -65 -72 -97 -48
-97 7 0 189 177 406 393 261 259 422 428 476 497 103 134 273 304 407 407 69
54 238 215 498 476 215 217 392 399 392 406 0 20 -29 12 -67 -21z"/>
<path d="M2303 5051 c-116 -101 -609 -602 -583 -592 14 5 41 16 60 24 37 16
620 595 620 616 0 24 -33 8 -97 -48z"/>
<path d="M2503 5051 c-38 -33 -164 -156 -282 -274 l-214 -215 47 11 c42 9 66
31 296 263 137 138 250 257 250 263 0 24 -33 8 -97 -48z"/>
<path d="M2703 5051 c-38 -33 -152 -144 -256 -248 l-187 -189 39 4 c37 4 56
21 270 237 127 128 231 238 231 244 0 24 -33 8 -97 -48z"/>
<path d="M2903 5051 c-38 -33 -149 -141 -248 -240 -179 -181 -180 -181 -144
-181 33 0 51 15 262 229 125 126 227 234 227 240 0 24 -33 8 -97 -48z"/>
<path d="M3103 5051 c-38 -33 -149 -141 -248 -240 -179 -181 -180 -181 -144
-181 33 0 51 15 262 229 125 126 227 234 227 240 0 24 -33 8 -97 -48z"/>
<path d="M3303 5051 c-38 -33 -153 -144 -257 -249 -186 -187 -188 -189 -157
-194 29 -4 45 10 271 238 132 133 240 247 240 253 0 24 -33 8 -97 -48z"/>
<path d="M3503 5051 c-38 -33 -160 -151 -272 -264 -199 -200 -203 -204 -175
-211 27 -7 43 7 286 252 142 143 258 265 258 271 0 24 -33 8 -97 -48z"/>
<path d="M3703 5051 c-38 -33 -169 -161 -292 -285 -215 -216 -224 -226 -200
-235 22 -9 43 9 307 273 155 156 282 289 282 295 0 24 -33 8 -97 -48z"/>
<path d="M3903 5051 c-38 -33 -180 -172 -318 -310 -199 -201 -247 -253 -235
-261 8 -5 20 -10 26 -10 14 0 624 614 624 629 0 24 -33 8 -97 -48z"/>
<path d="M4103 5051 c-38 -33 -195 -187 -351 -343 -274 -275 -282 -285 -259
-295 23 -11 41 5 366 331 187 189 341 348 341 355 0 24 -33 8 -97 -48z"/>
<path d="M4303 5051 c-38 -33 -211 -203 -386 -378 -307 -308 -317 -320 -294
-330 23 -11 43 7 401 366 207 208 376 383 376 390 0 24 -32 8 -97 -48z"/>
<path d="M4503 5051 c-38 -33 -228 -220 -423 -416 -339 -340 -354 -357 -335
-371 19 -14 41 6 437 404 230 230 418 424 418 430 0 25 -32 10 -97 -47z"/>
<path d="M4733 5078 c-21 -17 -230 -223 -465 -457 -329 -328 -425 -428 -416
-438 6 -7 16 -13 22 -13 15 0 926 913 926 928 0 21 -29 13 -67 -20z"/>
<path d="M4903 5051 c-38 -33 -267 -259 -511 -503 -424 -425 -442 -445 -424
-461 17 -16 41 6 525 491 279 280 507 514 507 520 0 25 -32 10 -97 -47z"/>
<path d="M4573 4528 c-499 -499 -522 -523 -506 -540 16 -18 37 1 476 439 252
252 485 488 518 526 57 65 72 97 47 97 -6 0 -247 -235 -535 -522z"/>
<path d="M4621 4375 c-455 -453 -475 -475 -458 -492 17 -17 35 0 428 392 226
226 437 440 470 478 57 65 72 97 47 97 -6 0 -225 -214 -487 -475z"/>
<path d="M4668 4223 c-235 -235 -428 -432 -428 -439 0 -6 6 -16 13 -22 10 -9
104 80 408 386 218 218 410 414 427 435 33 38 41 67 20 67 -6 0 -204 -192
-440 -427z"/>
<path d="M4709 4063 c-214 -213 -389 -392 -389 -399 0 -6 6 -16 13 -22 10 -9
94 71 368 346 196 196 370 374 387 395 33 38 41 67 21 67 -7 0 -187 -174 -400
-387z"/>
<path d="M4742 3897 c-337 -336 -354 -355 -342 -377 12 -22 23 -12 307 271
377 375 450 459 402 459 -7 0 -172 -159 -367 -353z"/>
<path d="M2480 4074 c-55 -10 -148 -48 -198 -81 -71 -48 -128 -115 -168 -198
-49 -101 -57 -161 -52 -390 5 -219 16 -268 78 -364 224 -349 748 -287 892 105
18 51 22 86 26 259 5 229 -3 289 -52 390 -80 168 -236 272 -421 280 -44 2 -91
2 -105 -1z m245 -132 c76 -36 153 -109 188 -178 42 -83 49 -142 45 -354 -3
-195 -3 -195 -34 -261 -71 -150 -207 -239 -364 -239 -157 0 -293 89 -364 239
l-31 66 0 230 0 230 32 67 c40 85 97 147 172 186 78 42 122 52 213 48 61 -3
92 -11 143 -34z"/>
<path d="M4777 3732 c-302 -302 -320 -320 -313 -347 7 -28 14 -21 273 236 345
344 419 429 372 429 -7 0 -156 -143 -332 -318z"/>
<path d="M4804 3558 c-273 -274 -292 -295 -283 -318 9 -23 20 -14 245 210 315
314 389 400 343 400 -6 0 -143 -132 -305 -292z"/>
<path d="M4829 3383 c-250 -250 -268 -270 -262 -297 6 -27 13 -21 220 185 293
292 367 379 322 379 -6 0 -132 -120 -280 -267z"/>
<path d="M4849 3203 c-240 -238 -272 -277 -241 -297 8 -5 416 401 480 477 32
38 41 67 21 67 -6 0 -123 -111 -260 -247z"/>
<path d="M369 3123 c-162 -164 -310 -315 -327 -336 -32 -38 -41 -67 -21 -67
21 0 600 583 616 620 22 53 33 80 30 80 -1 0 -135 -134 -298 -297z"/>
<path d="M4859 3013 c-221 -221 -238 -240 -232 -267 6 -27 11 -23 190 155 262
260 336 349 292 349 -6 0 -118 -107 -250 -237z"/>
<path d="M314 2868 c-132 -134 -255 -260 -272 -281 -32 -38 -41 -67 -21 -67 6
0 125 113 263 250 230 227 254 254 263 295 6 25 10 45 9 45 -1 0 -109 -109
-242 -242z"/>
<path d="M4864 2818 c-218 -216 -234 -234 -234 -267 0 -36 1 -35 186 149 263
261 337 350 293 350 -6 0 -116 -104 -245 -232z"/>
<path d="M1124 2935 c-4 -16 -13 -25 -25 -25 -34 0 -98 -39 -114 -70 -8 -16
-15 -49 -15 -74 0 -67 42 -108 143 -140 14 -4 17 -17 17 -76 0 -82 -7 -86 -79
-45 -49 29 -73 31 -91 10 -27 -33 25 -80 118 -104 37 -10 42 -15 42 -39 0 -27
15 -52 31 -52 15 0 39 32 39 53 0 17 12 26 52 42 63 24 98 69 98 127 0 64 -24
96 -96 130 l-64 30 0 65 c0 73 1 73 77 42 26 -10 34 -10 47 0 38 32 -5 83 -80
97 -20 4 -36 15 -43 30 -14 32 -49 32 -57 -1z"/>
<path d="M3950 2936 c-6 -16 -19 -26 -44 -30 -78 -15 -126 -92 -105 -169 11
-41 59 -85 111 -103 33 -11 33 -11 36 -82 3 -83 0 -85 -73 -46 -62 32 -90 29
-90 -11 0 -24 7 -34 40 -52 22 -13 59 -28 83 -34 37 -10 42 -15 42 -39 0 -36
24 -57 45 -40 8 7 15 24 15 39 0 23 6 28 44 39 81 21 128 94 111 171 -8 38
-63 86 -115 102 l-40 12 0 74 0 73 38 -16 c56 -25 77 -27 91 -10 7 8 10 24 6
35 -6 20 -78 61 -108 61 -10 0 -22 11 -27 25 -12 33 -47 33 -60 1z"/>
<path d="M289 2643 c-118 -120 -230 -235 -247 -256 -32 -38 -41 -67 -21 -67 6
0 116 104 244 231 216 213 233 233 237 270 2 21 3 39 3 39 0 0 -97 -98 -216
-217z"/>
<path d="M4864 2618 c-213 -212 -235 -237 -241 -273 -5 -40 -4 -39 187 150
267 264 343 355 299 355 -6 0 -116 -105 -245 -232z"/>
<path d="M1719 2716 c-112 -40 -137 -86 -200 -368 -27 -123 -52 -231 -55 -240
-5 -16 -22 -18 -177 -18 -181 0 -220 -6 -272 -41 -59 -41 -80 -84 -80 -164 0
-94 31 -145 110 -181 54 -25 55 -25 332 -22 l278 3 47 28 c67 39 91 75 147
227 l50 135 1 -501 c0 -472 1 -502 18 -517 17 -15 76 -17 644 -17 593 0 626 1
641 18 15 17 17 68 17 518 l1 499 50 -135 c56 -152 80 -188 147 -227 l47 -28
278 -3 c277 -3 278 -3 332 22 79 36 110 87 110 181 0 80 -21 123 -80 164 -52
35 -91 41 -272 41 -155 0 -172 2 -177 18 -3 9 -28 118 -55 241 -57 256 -76
296 -155 346 l-49 30 -821 2 c-654 2 -828 0 -857 -11z m728 -178 c51 -51 93
-98 93 -105 0 -6 -47 -143 -105 -305 -58 -161 -105 -303 -105 -315 0 -27 244
-263 273 -263 21 0 245 209 265 247 9 19 -5 68 -99 329 l-110 307 33 36 c18
20 60 64 93 99 l59 62 254 0 c282 0 305 -4 341 -64 10 -17 42 -137 71 -266 64
-291 66 -299 93 -305 12 -3 114 -6 225 -7 l204 -3 29 -33 c48 -54 35 -129 -28
-161 -14 -7 -108 -11 -273 -11 -339 0 -322 -9 -405 220 -138 382 -148 405
-178 408 -60 7 -57 37 -57 -644 l0 -624 -560 0 -560 0 0 624 c0 681 3 651 -57
644 -30 -3 -40 -26 -178 -408 -83 -229 -66 -220 -405 -220 -165 0 -259 4 -273
11 -63 32 -76 107 -28 161 l29 33 204 3 c111 1 213 4 225 7 27 6 29 14 93 305
29 129 61 249 71 266 37 61 53 64 379 64 l295 0 92 -92z m240 -482 l80 -225
-76 -75 c-42 -42 -80 -76 -85 -76 -18 0 -167 145 -164 160 6 32 153 440 159
440 3 0 42 -101 86 -224z"/>
<path d="M4844 2398 c-228 -228 -254 -257 -260 -293 -6 -39 -2 -36 206 170
288 286 364 375 319 375 -6 0 -125 -114 -265 -252z"/>
<path d="M254 2408 c-210 -212 -257 -268 -240 -285 9 -9 92 67 289 265 176
176 188 191 185 221 -3 33 -7 30 -234 -201z"/>
<path d="M4809 2163 c-261 -259 -291 -293 -310 -343 l-20 -55 261 260 c341
339 416 425 369 425 -6 0 -141 -129 -300 -287z"/>
<path d="M254 2208 c-210 -212 -257 -268 -240 -285 9 -9 92 67 289 265 176
176 188 191 185 221 -3 33 -7 30 -234 -201z"/>
<path d="M264 2018 c-219 -221 -267 -278 -250 -295 9 -10 95 69 302 279 185
187 200 205 195 231 -6 28 -15 20 -247 -215z"/>
<path d="M4728 1883 c-321 -320 -380 -382 -444 -478 l-75 -110 396 395 c218
217 423 425 456 463 56 65 72 97 48 97 -7 0 -178 -165 -381 -367z"/>
<path d="M279 1833 c-232 -234 -282 -293 -265 -310 9 -10 94 69 320 295 207
208 218 221 210 246 -9 27 -16 20 -265 -231z"/>
<path d="M4122 1078 c-535 -535 -992 -995 -1014 -1021 -43 -50 -44 -63 -6 -52
24 7 1853 1826 1959 1948 57 65 72 97 47 97 -7 0 -450 -438 -986 -972z"/>
<path d="M324 1677 c-138 -139 -265 -269 -282 -290 -32 -38 -41 -67 -21 -67 6
0 138 126 294 281 220 218 282 285 278 300 -3 11 -9 21 -12 24 -4 2 -120 -109
-257 -248z"/>
<path d="M4222 978 c-480 -480 -892 -895 -914 -921 -43 -50 -44 -63 -6 -52 24
8 1653 1626 1759 1748 57 65 72 97 47 97 -7 0 -405 -393 -886 -872z"/>
<path d="M323 1477 c-271 -273 -327 -337 -309 -354 10 -10 97 71 370 345 227
228 267 273 261 291 -3 11 -10 21 -14 21 -4 0 -143 -136 -308 -303z"/>
<path d="M358 1313 c-302 -305 -362 -372 -344 -390 10 -10 99 73 403 379 286
287 301 304 290 326 -12 22 -26 9 -349 -315z"/>
<path d="M4322 878 c-754 -754 -860 -863 -849 -874 3 -3 16 -3 29 1 24 8 1454
1427 1559 1548 57 65 72 97 47 97 -7 0 -360 -348 -786 -772z"/>
<path d="M393 1148 c-203 -205 -373 -383 -378 -396 -21 -70 23 -31 437 385
319 320 336 339 325 361 -12 21 -28 7 -384 -350z"/>
<path d="M4422 778 c-658 -658 -760 -763 -749 -774 3 -3 16 -3 29 1 24 8 1255
1228 1359 1348 57 65 72 97 47 97 -6 0 -315 -303 -686 -672z"/>
<path d="M454 1008 c-209 -211 -395 -400 -412 -421 -33 -38 -41 -67 -20 -67 6
0 199 187 429 417 359 357 417 419 408 435 -5 10 -13 18 -17 18 -4 0 -178
-172 -388 -382z"/>
<path d="M499 852 c-234 -235 -440 -444 -457 -465 -33 -38 -41 -67 -20 -67 15
0 928 911 928 926 0 6 -6 16 -13 22 -10 9 -110 -87 -438 -416z"/>
<path d="M4522 678 c-664 -663 -694 -695 -620 -673 24 8 1056 1030 1159 1148
57 65 72 97 47 97 -6 0 -270 -258 -586 -572z"/>
<path d="M518 672 c-272 -273 -499 -507 -503 -520 -22 -72 14 -39 568 515 448
449 467 470 449 486 -17 16 -40 -5 -514 -481z"/>
<path d="M592 547 c-287 -288 -522 -529 -522 -535 0 -25 32 -10 97 47 38 33
274 266 526 518 438 439 457 460 439 476 -17 16 -41 -7 -540 -506z"/>
<path d="M4623 578 c-558 -557 -594 -595 -521 -573 24 8 858 832 959 948 57
65 72 97 47 97 -6 0 -225 -213 -485 -472z"/>
<path d="M742 497 c-260 -261 -472 -479 -472 -485 0 -25 32 -10 97 47 38 33
252 244 477 469 355 356 408 413 397 426 -8 9 -16 16 -20 16 -4 0 -219 -213
-479 -473z"/>
<path d="M3710 835 c-87 -60 -170 -138 -472 -443 -203 -203 -368 -374 -368
-381 0 -24 32 -8 97 48 65 56 863 852 853 850 -3 -1 -52 -34 -110 -74z"/>
<path d="M897 452 c-235 -236 -427 -434 -427 -440 0 -21 29 -13 67 20 21 17
217 209 435 427 306 304 395 398 386 408 -6 7 -16 13 -22 13 -7 0 -204 -193
-439 -428z"/>
<path d="M4723 478 c-452 -450 -492 -495 -421 -472 25 7 661 634 759 747 56
65 72 97 48 97 -7 0 -180 -168 -386 -372z"/>
<path d="M1057 411 c-213 -213 -387 -393 -387 -400 0 -20 29 -12 67 21 21 17
199 191 395 387 275 274 355 358 346 368 -6 7 -16 13 -22 13 -7 0 -186 -175
-399 -389z"/>
<path d="M1222 376 c-194 -194 -352 -358 -352 -365 0 -48 84 25 459 402 270
272 292 296 273 306 -11 6 -22 11 -24 11 -2 0 -162 -159 -356 -354z"/>
<path d="M1387 341 c-174 -175 -317 -324 -317 -330 0 -20 29 -11 67 21 21 17
169 162 330 322 282 280 303 305 252 306 -8 0 -158 -143 -332 -319z"/>
<path d="M4823 378 c-345 -342 -390 -394 -322 -373 25 8 468 441 560 548 56
64 72 97 48 97 -6 0 -135 -123 -286 -272z"/>
<path d="M3294 619 c-43 -16 -91 -60 -337 -308 -158 -159 -287 -294 -287 -300
0 -24 33 -8 97 48 68 59 592 581 583 580 -3 0 -28 -9 -56 -20z"/>
<path d="M1562 316 c-161 -162 -292 -299 -292 -305 0 -46 86 28 399 343 198
198 232 236 215 242 -10 4 -22 8 -25 10 -3 2 -137 -129 -297 -290z"/>
<path d="M1737 291 c-147 -148 -267 -274 -267 -280 0 -24 33 -8 97 48 119 104
499 491 481 491 -9 0 -23 2 -30 5 -9 4 -115 -96 -281 -264z"/>
<path d="M2994 533 c-23 -4 -524 -504 -524 -522 0 -45 88 29 375 318 137 138
203 211 190 210 -11 -1 -30 -4 -41 -6z"/>
<path d="M1917 271 c-136 -137 -247 -254 -247 -260 0 -20 29 -11 67 21 76 64
482 472 477 480 -20 31 -59 -1 -297 -241z"/>
<path d="M2107 261 c-130 -131 -237 -244 -237 -250 0 -24 33 -8 97 48 118 103
439 431 421 431 -9 0 -23 2 -30 5 -9 4 -103 -84 -251 -234z"/>
<path d="M2745 490 c-25 -10 -475 -464 -475 -479 0 -44 89 30 355 298 156 157
185 191 165 190 -14 0 -34 -4 -45 -9z"/>
<path d="M2302 256 c-128 -129 -232 -239 -232 -245 0 -44 89 30 350 293 184
185 185 186 149 186 -33 0 -51 -16 -267 -234z"/>
<path d="M4924 278 c-185 -182 -261 -265 -250 -275 14 -14 62 23 192 149 203
197 286 298 244 298 -6 0 -90 -78 -186 -172z"/>
</g>
</svg>
