<?xml version="1.0" standalone="no"?>
<!DOCTYPE svg PUBLIC "-//W3C//DTD SVG 20010904//EN"
 "http://www.w3.org/TR/2001/REC-SVG-20010904/DTD/svg10.dtd">
<svg version="1.0" xmlns="http://www.w3.org/2000/svg"
 width="512.000000pt" height="512.000000pt" viewBox="0 0 512.000000 512.000000"
 preserveAspectRatio="xMidYMid meet">
<metadata>
Created by potrace 1.15, written by Peter Selinger 2001-2017
</metadata>
<g transform="translate(0.000000,512.000000) scale(0.100000,-0.100000)"
fill="#000000" stroke="none">
<path d="M270 5025 c-163 -155 -260 -263 -260 -290 0 -14 3 -25 6 -25 3 0 37
30 75 67 l69 66 0 -63 0 -63 -75 -78 c-53 -55 -75 -86 -75 -104 0 -14 3 -25 6
-25 3 0 37 30 75 67 l69 66 0 -63 0 -63 -75 -78 c-53 -55 -75 -86 -75 -104 0
-14 3 -25 6 -25 3 0 37 30 75 67 l69 66 0 -63 0 -63 -75 -78 c-53 -56 -75 -86
-75 -104 0 -34 18 -24 90 49 l54 56 65 0 65 0 -137 -139 c-106 -108 -137 -145
-137 -165 0 -22 3 -25 18 -17 9 5 141 134 292 285 198 199 281 276 297 276 17
0 23 6 23 23 0 16 77 99 276 297 151 151 280 283 285 293 8 14 5 17 -17 17
-20 0 -57 -31 -165 -137 l-139 -137 0 65 0 65 56 54 c73 72 83 90 49 90 -18 0
-48 -22 -104 -75 l-78 -75 -63 0 -63 0 66 69 c37 38 67 72 67 75 0 3 -11 6
-25 6 -18 0 -49 -22 -104 -75 l-78 -75 -63 0 -63 0 66 69 c37 38 67 72 67 75
0 3 -11 6 -25 6 -18 0 -49 -22 -104 -75 l-78 -75 -63 0 -63 0 66 69 c37 38 67
72 67 75 0 3 -11 6 -25 6 -17 0 -51 -25 -115 -85z m215 -385 l-160 -160 -3 62
-3 62 98 98 98 98 65 0 65 0 -160 -160z m260 60 c-81 -82 -101 -97 -103 -80
-3 16 -11 20 -45 20 l-42 0 80 80 80 80 65 0 65 0 -100 -100z m-244 -222 c16
-2 -1 -23 -81 -103 l-100 -100 0 65 0 65 78 78 77 78 3 -40 c2 -31 8 -40 23
-43z"/>
<path d="M702 4458 c-359 -359 -662 -665 -673 -681 -11 -15 -19 -37 -17 -50 4
-18 60 34 356 328 l352 350 0 -43 c0 -37 3 -42 22 -42 17 0 -71 -94 -355 -378
-312 -313 -377 -383 -377 -405 0 -23 3 -26 18 -18 9 5 195 188 412 405 287
287 401 396 417 396 17 0 23 6 23 23 0 16 98 120 356 377 195 195 360 363 365
373 8 14 5 17 -18 17 -22 0 -87 -60 -365 -337 -254 -254 -338 -332 -338 -315
0 19 -5 22 -42 22 l-43 0 308 308 c169 169 307 311 307 315 0 4 -12 7 -27 7
-23 0 -137 -110 -681 -652z"/>
<path d="M902 4258 c-469 -469 -862 -865 -873 -881 -11 -15 -19 -37 -17 -50 4
-18 81 55 476 448 l472 470 0 -43 c0 -37 3 -42 22 -42 17 0 -103 -125 -475
-498 -414 -415 -497 -502 -497 -525 0 -23 3 -26 18 -18 9 5 249 242 532 525
375 376 521 516 537 516 17 0 23 6 23 23 0 16 119 141 436 457 239 239 440
443 445 453 8 14 5 17 -18 17 -22 0 -98 -71 -445 -417 -313 -313 -418 -412
-418 -395 0 19 -5 22 -42 22 l-43 0 388 388 c213 213 387 391 387 395 0 4 -12
7 -27 7 -23 0 -168 -140 -881 -852z"/>
<path d="M1102 4058 c-579 -579 -1062 -1065 -1073 -1081 -11 -15 -19 -37 -17
-50 4 -18 102 75 596 568 l592 590 0 -43 c0 -37 3 -42 22 -42 17 0 -134 -156
-595 -618 -517 -517 -617 -622 -617 -645 0 -23 3 -26 18 -18 9 5 303 296 652
645 464 465 641 636 657 636 17 0 23 6 23 23 0 16 140 162 516 537 283 283
520 523 525 533 8 14 5 17 -18 17 -23 0 -110 -83 -525 -497 -373 -372 -498
-492 -498 -475 0 19 -5 22 -42 22 l-43 0 468 468 c257 257 467 471 467 475 0
4 -12 7 -27 7 -23 0 -198 -170 -1081 -1052z"/>
<path d="M1302 3858 c-689 -689 -1262 -1265 -1273 -1281 -11 -15 -19 -37 -17
-50 4 -18 222 195 1292 1263 708 707 1292 1293 1297 1303 8 14 5 17 -18 17
-23 0 -220 -193 -1281 -1252z"/>
<path d="M2320 4677 c-358 -357 -448 -441 -506 -475 -225 -131 -426 -330 -555
-550 -47 -80 -99 -136 -650 -687 -497 -499 -599 -605 -599 -628 0 -15 3 -27 7
-27 4 0 260 252 569 561 l561 560 -33 -97 -33 -97 -535 -537 c-444 -444 -536
-540 -536 -563 0 -15 3 -27 7 -27 4 0 241 233 525 517 285 285 518 513 518
508 0 -6 -5 -39 -10 -74 l-9 -65 -515 -516 c-427 -427 -516 -520 -516 -543 0
-15 3 -27 7 -27 4 0 236 228 515 507 l508 508 0 -65 0 -65 -515 -515 c-426
-427 -515 -520 -515 -543 0 -15 3 -27 7 -27 4 0 235 228 514 506 l506 506 6
-58 5 -59 -519 -520 c-430 -431 -519 -525 -519 -548 0 -15 3 -27 7 -27 4 0
240 232 524 516 l516 516 7 -58 7 -58 -531 -531 c-442 -443 -530 -535 -530
-558 0 -23 3 -26 18 -18 9 5 251 244 537 530 l520 521 12 -53 12 -52 -550
-550 c-455 -457 -549 -555 -549 -578 0 -15 3 -27 7 -27 4 0 255 248 558 550
l551 551 13 -52 13 -51 -571 -572 c-474 -474 -571 -576 -571 -599 0 -15 3 -27
7 -27 4 0 265 257 580 572 315 315 574 570 576 568 2 -3 11 -23 20 -45 l15
-40 -599 -600 c-497 -499 -599 -605 -599 -628 0 -15 3 -27 6 -27 3 0 37 30 75
67 l69 66 0 -63 0 -63 -75 -78 c-53 -55 -75 -86 -75 -104 0 -14 3 -25 6 -25 3
0 37 30 75 67 l69 66 0 -63 0 -63 -75 -78 c-53 -55 -75 -86 -75 -104 0 -14 3
-25 6 -25 3 0 37 30 75 67 l69 66 0 -63 0 -63 -75 -78 c-53 -55 -75 -86 -75
-104 0 -14 3 -25 6 -25 3 0 37 30 75 67 57 55 69 62 69 45 0 -12 9 -31 21 -43
l21 -21 -71 -73 c-39 -40 -71 -76 -71 -79 0 -3 11 -6 25 -6 18 0 50 23 109 80
l83 80 63 0 63 0 -71 -74 c-40 -41 -72 -77 -72 -80 0 -3 11 -6 25 -6 18 0 50
23 109 80 l83 80 63 0 63 0 -71 -74 c-40 -41 -72 -77 -72 -80 0 -3 11 -6 25
-6 18 0 50 23 109 80 l83 80 63 0 63 0 -71 -74 c-40 -41 -72 -77 -72 -80 0 -3
12 -6 27 -6 22 0 98 71 427 400 l401 399 16 -49 15 -49 -334 -333 c-183 -183
-338 -341 -343 -350 -8 -15 -5 -18 18 -18 22 0 86 59 359 331 182 182 334 326
338 321 4 -6 -7 -32 -24 -58 -16 -26 -33 -64 -36 -83 -5 -30 -44 -74 -235
-266 -126 -127 -229 -234 -229 -238 0 -4 12 -7 26 -7 22 0 68 41 228 199 l201
200 16 -49 15 -49 -134 -133 c-154 -153 -165 -168 -126 -168 20 0 56 30 158
129 l131 129 34 -30 33 -30 -91 -92 c-50 -52 -91 -96 -91 -100 0 -3 11 -6 25
-6 19 0 50 24 113 84 l88 85 57 -6 58 -6 -71 -72 c-38 -40 -70 -76 -70 -79 0
-3 11 -6 25 -6 18 0 50 23 109 80 l83 80 63 0 63 0 -71 -74 c-40 -41 -72 -77
-72 -80 0 -3 11 -6 25 -6 18 0 50 23 109 80 l83 80 63 0 63 0 -71 -74 c-40
-41 -72 -77 -72 -80 0 -3 11 -6 25 -6 18 0 50 23 109 80 l83 80 63 0 63 0 -71
-74 c-40 -41 -72 -77 -72 -80 0 -3 11 -6 25 -6 18 0 50 23 109 80 l83 80 63 0
63 0 -71 -74 c-40 -41 -72 -77 -72 -80 0 -3 11 -6 25 -6 18 0 50 23 109 80
l83 80 63 0 63 0 -71 -74 c-40 -41 -72 -77 -72 -80 0 -3 11 -6 25 -6 18 0 50
23 109 80 l83 80 63 0 63 0 -71 -74 c-40 -41 -72 -77 -72 -80 0 -3 11 -6 25
-6 18 0 50 23 109 80 l83 80 63 0 63 0 -71 -74 c-40 -41 -72 -77 -72 -80 0 -3
11 -6 25 -6 18 0 49 23 108 79 l82 79 67 4 67 3 -75 -76 c-41 -42 -74 -79 -74
-83 0 -3 12 -6 27 -6 22 0 98 71 428 400 287 286 407 400 423 400 16 0 22 6
22 22 0 16 134 157 480 503 397 397 480 486 480 508 0 15 -3 27 -7 27 -4 0
-220 -213 -480 -472 -355 -355 -473 -467 -473 -450 0 19 -5 22 -42 22 l-43 0
523 523 c432 433 522 527 522 550 0 15 -3 27 -7 27 -4 0 -348 -341 -765 -757
-416 -416 -759 -755 -761 -753 -2 3 -13 21 -25 41 l-21 35 167 167 c117 117
174 167 190 167 16 0 22 6 22 22 0 16 165 188 600 623 498 499 600 605 600
628 0 15 -3 27 -7 27 -4 0 -274 -267 -600 -592 -444 -444 -593 -587 -593 -570
0 19 -5 22 -42 22 l-43 0 643 643 c534 535 642 647 642 670 0 15 -3 27 -7 27
-4 0 -348 -341 -765 -757 -416 -416 -759 -755 -761 -753 -2 3 -13 21 -25 40
l-21 35 789 790 c660 660 790 795 790 818 0 15 -3 27 -7 27 -4 0 -364 -357
-800 -792 l-793 -793 0 65 0 65 800 800 c668 669 800 805 800 828 0 15 -3 27
-7 27 -4 0 -364 -357 -800 -792 -591 -591 -793 -787 -793 -770 0 12 23 50 51
84 28 35 77 104 111 153 50 75 171 202 749 780 574 575 689 695 689 718 0 15
-3 27 -7 27 -4 0 -295 -287 -646 -638 -602 -600 -637 -633 -608 -574 17 34 41
86 52 115 18 46 85 117 615 647 493 495 594 600 594 623 0 15 -3 27 -7 27 -4
0 -263 -255 -575 -567 l-566 -566 25 89 25 89 549 550 c455 457 549 555 549
578 0 15 -3 27 -7 27 -4 0 -248 -240 -542 -532 -293 -293 -531 -525 -527 -515
3 10 9 44 12 75 l6 57 529 530 c437 439 529 536 529 558 0 15 -3 27 -7 27 -4
0 -238 -231 -520 -512 l-513 -513 0 65 0 65 520 520 c431 431 520 525 520 548
0 15 -3 27 -7 27 -4 0 -238 -231 -520 -512 l-513 -513 0 65 0 65 520 520 c431
431 520 525 520 548 0 15 -3 27 -7 27 -4 0 -238 -230 -520 -512 -330 -330
-514 -507 -517 -497 -2 8 -7 32 -9 54 l-5 40 529 530 c438 440 529 535 529
558 0 15 -3 27 -7 27 -4 0 -245 -237 -534 -526 l-527 -527 -15 49 -14 49 548
550 c455 456 549 555 549 578 0 15 -3 27 -6 27 -3 0 -39 -32 -80 -72 l-74 -71
0 63 0 63 80 83 c57 59 80 91 80 109 0 14 -3 25 -6 25 -3 0 -39 -32 -80 -72
l-74 -71 0 63 0 63 80 83 c57 59 80 91 80 109 0 14 -3 25 -6 25 -3 0 -39 -32
-80 -72 l-74 -71 0 63 0 63 80 83 c57 59 80 91 80 109 0 14 -3 25 -6 25 -3 0
-39 -32 -79 -71 l-73 -71 -21 21 c-12 12 -31 21 -43 21 -17 0 -10 12 45 69 37
38 67 72 67 75 0 3 -11 6 -25 6 -18 0 -49 -22 -104 -75 l-78 -75 -63 0 -63 0
66 69 c37 38 67 72 67 75 0 3 -11 6 -25 6 -18 0 -49 -22 -104 -75 l-78 -75
-63 0 -63 0 66 69 c37 38 67 72 67 75 0 3 -11 6 -25 6 -18 0 -49 -22 -104 -75
l-78 -75 -63 0 -63 0 66 69 c37 38 67 72 67 75 0 3 -12 6 -27 6 -22 0 -110
-83 -503 -475 -261 -261 -478 -475 -482 -475 -4 0 -23 10 -43 21 l-37 22 446
446 c245 246 446 450 446 454 0 4 -12 7 -27 7 -22 0 -105 -77 -469 -441 l-441
-441 -43 22 -43 22 412 412 c226 226 411 415 411 419 0 4 -12 7 -27 7 -22 0
-100 -73 -437 -409 l-411 -408 -40 15 c-22 9 -42 17 -44 19 -3 2 167 176 377
386 210 210 382 386 382 390 0 4 -12 7 -27 7 -22 0 -96 -69 -412 -383 l-386
-384 -49 14 -49 15 362 362 c198 199 361 365 361 369 0 4 -12 7 -27 7 -22 0
-93 -66 -392 -364 -343 -342 -368 -364 -396 -360 -86 14 -106 -13 268 362 191
191 347 351 347 355 0 4 -12 7 -27 7 -22 0 -91 -64 -383 -355 l-356 -355 -64
0 -65 0 348 348 c191 191 347 351 347 355 0 4 -12 7 -27 7 -22 0 -92 -64 -382
-354 l-356 -354 -55 -7 c-30 -3 -64 -9 -75 -12 -11 -3 141 156 338 354 196
197 357 362 357 366 0 4 -12 7 -27 7 -22 0 -95 -67 -402 -374 l-376 -374 -72
-21 c-40 -12 -80 -24 -90 -28 -10 -3 159 172 375 388 215 217 392 398 392 402
0 4 -12 7 -27 7 -22 0 -104 -77 -463 -433z m1559 -243 l-363 -363 -37 27 -38
27 397 398 397 397 3 -62 3 -62 -362 -362z m246 46 c-231 -231 -326 -320 -342
-320 -17 0 -23 -6 -23 -23 0 -15 -24 -47 -70 -92 l-70 -70 -32 33 -33 32 380
380 380 380 65 0 65 0 -320 -320z m360 160 c-156 -157 -161 -160 -202 -160
l-43 0 0 -42 c0 -35 -6 -49 -37 -80 -35 -36 -40 -38 -102 -38 l-66 0 240 240
240 240 65 0 65 0 -160 -160z m315 137 c0 -15 -27 -49 -80 -102 -66 -65 -80
-76 -80 -57 0 19 -5 22 -42 22 l-43 0 80 80 c75 75 82 80 122 80 38 0 43 -3
43 -23z m-456 -678 c-252 -252 -460 -456 -463 -454 -3 2 -15 20 -25 40 l-20
36 380 380 c274 274 385 379 401 379 17 0 23 6 23 22 0 15 27 50 78 101 l77
78 3 -63 3 -62 -457 -457z m33 -167 l-425 -425 -22 43 -22 43 444 444 443 443
3 -62 3 -62 -424 -424z m-291 109 l-280 -280 -27 37 -28 37 162 163 c159 159
163 162 204 162 l43 0 0 42 c0 35 6 49 37 80 35 36 40 38 102 38 l66 0 -279
-279z m757 199 l42 0 -435 -435 c-239 -239 -437 -435 -440 -435 -3 0 -13 19
-22 43 l-16 42 412 413 c318 319 412 408 414 392 3 -16 11 -20 45 -20z m-2042
-25 c226 -39 465 -153 643 -306 327 -283 495 -689 472 -1140 -25 -489 -188
-915 -498 -1307 l-58 -73 0 -135 0 -134 -800 0 -800 0 0 134 0 135 -58 73
c-305 383 -468 805 -498 1293 -28 465 185 930 554 1208 305 229 670 318 1043
252z m-1550 -2346 l21 -42 -473 -473 -474 -474 -65 0 -65 0 515 515 c283 283
516 515 517 515 2 0 12 -19 24 -41z m-419 -682 l-507 -507 -3 62 -3 62 488
488 488 488 22 -43 22 -42 -507 -508z m578 383 c0 -3 -245 -250 -545 -550
l-545 -545 0 65 0 65 522 522 523 523 22 -38 c13 -20 23 -39 23 -42z m58 -80
c12 -16 22 -33 22 -37 0 -4 -109 -117 -242 -250 -174 -174 -249 -243 -265
-243 -17 0 -23 -6 -23 -22 0 -14 -22 -45 -57 -80 l-57 -58 -63 0 -63 0 0 -63
c0 -60 -2 -65 -40 -102 -36 -35 -40 -37 -40 -17 0 19 -5 22 -42 22 l-43 0 440
440 c242 242 442 440 446 440 3 0 15 -13 27 -30z m87 -116 l28 -36 -109 -109
-109 -109 -65 0 -65 0 145 145 c80 80 145 145 146 145 1 0 14 -16 29 -36z
m-372 -636 l-418 -418 -65 0 -65 0 320 320 c320 320 320 320 362 320 l43 0 0
42 c0 41 5 47 118 161 l117 117 3 -62 3 -62 -418 -418z m382 263 c-19 -29 -38
-70 -41 -91 -5 -33 -44 -75 -325 -356 l-319 -319 0 43 c0 37 -3 42 -22 42 -17
0 69 92 357 380 209 209 381 374 383 367 2 -8 -13 -37 -33 -66z m2216 -43 c16
-2 -1 -24 -83 -105 l-103 -103 3 68 3 67 77 78 77 78 3 -40 c2 -31 8 -40 23
-43z m240 -160 c15 -2 -32 -54 -203 -225 l-223 -223 3 68 3 67 197 198 197
197 3 -39 c2 -31 8 -40 23 -43z m-3018 2 l42 0 -240 -240 -240 -240 -65 0 -65
0 80 80 c53 53 87 80 102 80 17 0 23 6 23 22 0 14 22 45 57 80 l57 58 63 0 63
0 0 62 c0 58 2 65 38 101 33 34 37 36 40 18 3 -17 11 -21 45 -21z m-500 -320
c17 0 6 -16 -58 -80 -95 -96 -125 -105 -125 -38 0 40 5 48 78 121 l77 78 3
-41 c3 -33 7 -40 25 -40z"/>
<path d="M2480 3761 l0 -158 -59 -6 c-171 -18 -327 -139 -393 -306 -32 -82
-32 -261 1 -343 47 -121 159 -233 279 -279 50 -20 83 -23 272 -29 193 -6 220
-8 266 -29 64 -28 136 -101 166 -166 31 -69 31 -180 -1 -251 -28 -63 -100
-136 -166 -166 -49 -22 -59 -23 -407 -26 l-358 -3 0 -80 0 -79 200 0 200 0 0
-160 0 -160 80 0 80 0 0 159 0 158 98 5 c65 4 116 13 153 27 123 47 231 155
280 279 33 83 33 261 1 344 -48 121 -160 232 -280 279 -50 20 -83 23 -272 29
-193 6 -220 8 -266 29 -64 28 -136 101 -166 166 -31 70 -31 180 0 250 30 65
102 138 166 167 50 22 60 23 409 26 l357 3 0 80 0 79 -240 0 -240 0 0 160 0
160 -80 0 -80 0 0 -159z"/>
<path d="M4292 848 c-447 -447 -818 -821 -823 -830 -8 -15 -5 -18 18 -18 22 0
90 63 390 362 l363 362 0 -42 c0 -37 3 -42 22 -42 17 0 -53 -76 -290 -313
-171 -172 -312 -316 -312 -320 0 -4 12 -7 27 -7 22 0 86 59 348 320 228 227
327 320 343 320 16 0 22 6 22 22 0 16 103 126 360 383 295 296 360 366 360
388 0 15 -3 27 -7 27 -4 0 -166 -159 -360 -352 -267 -266 -353 -347 -353 -330
0 19 -5 22 -42 22 l-42 0 402 403 c330 331 402 408 402 430 0 15 -3 27 -7 27
-4 0 -374 -366 -821 -812z"/>
<path d="M4492 648 c-337 -337 -618 -621 -623 -630 -8 -15 -5 -18 17 -18 23 0
79 52 311 282 l283 282 0 -42 c0 -37 3 -42 22 -42 19 0 8 -14 -57 -80 l-80
-80 -62 0 -63 0 0 -63 0 -62 -81 -80 c-99 -98 -110 -115 -74 -115 18 0 49 23
109 80 l83 80 63 0 63 0 -71 -74 c-40 -41 -72 -77 -72 -80 0 -3 11 -6 25 -6
18 0 50 23 109 80 l83 80 63 0 63 0 -71 -74 c-40 -41 -72 -77 -72 -80 0 -3 11
-6 25 -6 18 0 50 23 109 80 l83 80 63 0 63 0 -71 -74 c-40 -41 -72 -77 -72
-80 0 -3 11 -6 25 -6 18 0 50 23 109 80 51 49 91 80 105 80 27 0 61 34 61 61
0 14 31 54 80 105 57 59 80 91 80 109 0 14 -3 25 -6 25 -3 0 -39 -32 -80 -72
l-74 -71 0 63 0 63 80 83 c57 59 80 91 80 109 0 14 -3 25 -6 25 -3 0 -39 -32
-80 -72 l-74 -71 0 63 0 63 80 83 c57 59 80 91 80 109 0 14 -3 25 -6 25 -3 0
-39 -32 -80 -72 l-74 -71 0 63 0 63 80 83 c57 60 80 91 80 109 0 36 -17 25
-115 -74 l-80 -81 -62 0 -63 0 0 -63 0 -62 -80 -80 c-66 -65 -80 -76 -80 -57
0 19 -5 22 -42 22 l-42 0 282 283 c229 230 282 289 282 310 0 15 -3 27 -7 27
-4 0 -284 -276 -621 -612z m191 -210 l-118 -118 -65 0 -65 0 80 80 c53 53 87
80 102 80 17 0 23 6 23 22 0 15 27 50 78 101 l77 78 3 -63 3 -62 -118 -118z"/>
<path d="M4996 150 c-136 -133 -149 -150 -111 -150 18 0 49 23 111 82 102 98
127 130 122 161 -3 19 -19 7 -122 -93z"/>
</g>
</svg>
