<?xml version="1.0" encoding="iso-8859-1"?>
<!-- Generator: Adobe Illustrator 19.0.0, SVG Export Plug-In . SVG Version: 6.00 Build 0)  -->
<svg version="1.1" id="Layer_1" xmlns="http://www.w3.org/2000/svg" xmlns:xlink="http://www.w3.org/1999/xlink" x="0px" y="0px"
	 viewBox="0 0 491.52 491.52" style="enable-background:new 0 0 491.52 491.52;" xml:space="preserve">
<circle style="fill:#E05B49;" cx="245.76" cy="245.76" r="245.76"/>
<path style="opacity:0.1;enable-background:new    ;" d="M339.968,136.857c-1.434-1.894-4.813-4.71-12.083-4.25
	c-10.803-0.717-13.056,5.888-13.056,5.888c-0.358,2.253,0.563,7.066,1.229,9.933c-0.256,0-0.512-0.051-0.717,0
	c-1.383,0.41-1.895,2.509-1.229,4.71c0.614,2.099,2.151,3.43,3.482,3.174c0.665,1.946,1.587,3.789,2.611,5.376l-3.43,4.301
	l-57.958-57.958l-0.102-0.103c-2.099-1.689-5.683-3.277-11.52-2.918c-11.776-0.768-14.234,6.451-14.234,6.451
	c-0.41,2.458,0.614,7.731,1.331,10.855c-0.256,0-0.563-0.051-0.819,0c-1.433,0.461-2.048,2.765-1.331,5.12
	c0.717,2.304,2.406,3.789,3.84,3.482c0.87,2.509,2.048,4.864,3.482,6.809v4.506l-2.918,4.301v0.051l-0.205,0.307
	c-0.102-0.205-0.153-0.358-0.153-0.358l-16.026,6.246c-7.731,2.458-11.827,9.728-13.261,12.647l-28.313-28.314l-0.205-0.256
	c-1.434-1.894-4.813-4.71-12.083-4.25c-10.803-0.717-13.056,5.888-13.056,5.888c-0.358,2.253,0.563,7.066,1.229,9.933
	c-0.256,0-0.512-0.051-0.717,0c-1.383,0.41-1.946,2.509-1.28,4.71c0.665,2.099,2.202,3.43,3.533,3.174
	c0.819,2.304,1.895,4.454,3.226,6.247v4.147l-2.713,3.891v0.051l-0.205,0.256c-0.051-0.205-0.103-0.307-0.103-0.307l-14.694,5.683
	c-8.909,2.918-12.595,12.8-12.595,12.8c-3.942,6.553-10.854,65.382-10.854,65.382l1.075,1.075c-1.382,1.946-3.072,5.427-1.843,9.114
	c0,0,0.461,2.458,3.533,4.608l16.179,16.179v101.12l104.862,104.862c1.299,0.02,2.583,0.098,3.887,0.098
	c122.289,0,223.676-89.333,242.564-206.291L340.173,137.113L339.968,136.857z"/>
<g>
	<path style="fill:#DC8744;" d="M305.477,336.531v2.961c0,0.575-0.177,1.136-0.508,1.607l-3.782,5.378
		c-0.689,0.98-0.677,2.291,0.032,3.258l1.173,1.601c0.499,0.681,1.278,1.1,2.121,1.139l5.971,0.283
		c0.728,0.035,1.441-0.217,1.987-0.701l3.131-2.779c0.582-0.517,0.922-1.253,0.938-2.031l0.274-13.112L305.477,336.531z"/>
	<path style="fill:#DC8744;" d="M346.524,336.531v2.961c0,0.575,0.177,1.136,0.508,1.607l3.782,5.378
		c0.689,0.98,0.677,2.291-0.032,3.258l-1.173,1.601c-0.499,0.681-1.278,1.1-2.121,1.139l-5.971,0.283
		c-0.728,0.035-1.441-0.217-1.987-0.701l-3.131-2.779c-0.582-0.517-0.922-1.253-0.938-2.031l-0.274-13.112L346.524,336.531z"/>
</g>
<path style="fill:#2F4859;" d="M303.337,258.266l-1.397,77.004c0,0,8.047,2.759,17.014,0l5.21-68.392
	c0.044-0.701,0.626-1.248,1.329-1.248c0.714,0,1.301,0.564,1.33,1.278l3.398,69.588c0,0,8.108,2.376,18.653,0l0.386-78.231H303.337z
	"/>
<polygon style="fill:#EBF0F3;" points="320.826,166.655 317.293,171.863 324.958,212.663 330.604,194.236 337.259,175.309 
	337.645,170.614 334.937,166.655 "/>
<rect x="320.819" y="161.434" style="fill:#F6C358;" width="14.152" height="12.257"/>
<g>
	
		<ellipse transform="matrix(-0.9555 -0.2951 0.2951 -0.9555 618.3564 398.068)" style="fill:#FCD462;" cx="339.213" cy="152.377" rx="2.56" ry="4.116"/>
	
		<ellipse transform="matrix(-0.2951 -0.9555 0.9555 -0.2951 264.3606 499.7769)" style="fill:#FCD462;" cx="316.539" cy="152.371" rx="4.116" ry="2.56"/>
	<path style="fill:#FCD462;" d="M339.306,144.952v-8.086H316.35v8.202h0.08c-0.196,0.967-0.31,2.021-0.31,3.19
		c0,8.323,5.266,18.749,11.762,18.749c6.496,0,11.762-10.426,11.762-18.749C339.643,147.041,339.518,145.95,339.306,144.952z"/>
</g>
<path style="fill:#64798A;" d="M340.923,138.518c0,0-2.265-6.624-13.042-5.92c-10.777-0.705-13.042,5.92-13.042,5.92
	c-0.564,3.242,1.762,12.191,1.762,12.191h0.465v-8.623c0-1.026,0.274-2.055,0.89-2.876c1.559-2.08,3.36-0.693,3.36-0.693
	c3.024,3.101,6.565,2.748,6.565,2.748s3.541,0.352,6.565-2.748c0,0,1.801-1.387,3.36,0.693c0.615,0.821,0.89,1.85,0.89,2.876v8.623
	h0.465C339.162,150.709,341.487,141.76,340.923,138.518z"/>
<polygon style="fill:#E56353;" points="325.38,173.691 323.54,176.482 325.38,179.274 330.383,179.274 332.222,176.482 
	330.383,173.691 "/>
<g>
	<polygon style="fill:#E1E6E9;" points="318.118,170.614 320.826,166.655 326.37,173.673 321.898,181.506 	"/>
	<polygon style="fill:#E1E6E9;" points="338.397,170.322 334.937,166.655 329.393,173.673 333.325,180.562 	"/>
</g>
<polygon style="fill:#D15241;" points="330.383,179.274 327.881,179.274 325.38,179.274 322.946,198.363 327.076,206.566 
	332.816,198.363 "/>
<path style="fill:#FCD462;" d="M362.968,254.354l8.1-0.592c0,0,5.03,5.217,3.169,10.832c0,0-0.474,2.498-3.529,4.616
	c-0.841,0.583-2.08-0.035-1.933-0.967c0.421-2.676,0.633-6.95-1.882-8.512c0,0-1.258-0.973-1.459,0.84l-0.094,3.573
	c0.077,0.781-0.623,1.452-1.514,1.452c-0.874,0-1.568-0.647-1.517-1.414L362.968,254.354z"/>
<path style="fill:#3A556A;" d="M326.261,208.223v53.614c0,0,23.087-0.23,27.404-2.414l-5.755-52.458h3.401l8.632,47.4l13.21,0.115
	c0,0-6.932-58.837-10.856-65.401c0,0-3.662-9.897-12.59-12.771l-11.309-5.985l-10.237,28.697L326.261,208.223z"/>
<g>
	<path style="fill:#2F4859;" d="M338.397,170.322c0,0-14.562,26.592-11.784,38.596c0,0,6.829-19.939,14.468-26.45
		c0,0-1.677-1.317-4.282-2.035c0,0,4.959-1.69,6.116-2.809C342.914,177.624,341.582,172.153,338.397,170.322z"/>
	<polygon style="fill:#2F4859;" points="351.787,239.657 342.212,242.312 343.651,246.106 352.109,242.511 	"/>
</g>
<path style="fill:#FCD462;" d="M290.146,254.388l-8.1-0.592c0,0-5.03,5.217-3.169,10.832c0,0,0.474,2.498,3.529,4.616
	c0.841,0.583,2.08-0.035,1.933-0.967c-0.421-2.676-0.633-6.95,1.882-8.512c0,0,1.258-0.973,1.459,0.84l0.094,3.573
	c-0.077,0.781,0.623,1.452,1.514,1.452c0.874,0,1.568-0.647,1.517-1.414L290.146,254.388z"/>
<path style="fill:#64798A;" d="M326.557,208.223v53.614c0,0-23.087-0.23-27.404-2.414l5.755-52.458h-3.401l-8.632,47.4l-13.21,0.115
	c0,0,6.932-58.837,10.856-65.401c0,0,3.662-9.897,12.59-12.771l14.688-5.693l6.858,28.405L326.557,208.223z"/>
<g>
	<path style="fill:#3A556A;" d="M317.799,170.614c0,0,11.535,26.155,8.758,38.159c0,0-7.002-21.17-14.641-27.681
		c0,0,1.677-1.317,4.282-2.035c0,0-3.588-1.221-4.745-2.34C311.453,176.718,314.614,172.446,317.799,170.614z"/>
	<polygon style="fill:#3A556A;" points="301.327,239.691 310.902,242.346 309.463,246.14 301.005,242.545 	"/>
</g>
<g>
	<path style="fill:#DC8744;" d="M143.884,336.531v2.961c0,0.575-0.177,1.136-0.508,1.607l-3.782,5.378
		c-0.689,0.98-0.677,2.291,0.032,3.258l1.173,1.601c0.499,0.681,1.278,1.1,2.121,1.139l5.971,0.283
		c0.728,0.035,1.441-0.217,1.987-0.701l3.131-2.779c0.582-0.517,0.922-1.253,0.938-2.031l0.274-13.112L143.884,336.531z"/>
	<path style="fill:#DC8744;" d="M184.93,336.531v2.961c0,0.575,0.177,1.136,0.508,1.607l3.782,5.378
		c0.689,0.98,0.676,2.291-0.032,3.258l-1.173,1.601c-0.499,0.681-1.278,1.1-2.121,1.139l-5.971,0.283
		c-0.728,0.035-1.441-0.217-1.987-0.701l-3.131-2.779c-0.582-0.517-0.922-1.253-0.938-2.031l-0.274-13.112L184.93,336.531z"/>
</g>
<path style="fill:#2F4859;" d="M141.743,258.266l-1.397,77.004c0,0,8.047,2.759,17.014,0l5.21-68.392
	c0.044-0.701,0.626-1.248,1.329-1.248c0.714,0,1.301,0.564,1.33,1.278l3.398,69.588c0,0,8.108,2.376,18.653,0l0.386-78.231H141.743z
	"/>
<polygon style="fill:#EBF0F3;" points="159.232,166.655 155.7,171.863 163.364,212.663 169.01,194.236 175.666,175.309 
	176.051,170.614 173.343,166.655 "/>
<rect x="159.232" y="161.434" style="fill:#F6C358;" width="14.152" height="12.257"/>
<g>
	
		<ellipse transform="matrix(-0.9555 -0.2951 0.2951 -0.9555 302.3834 350.4042)" style="fill:#FCD462;" cx="177.631" cy="152.387" rx="2.56" ry="4.116"/>
	
		<ellipse transform="matrix(-0.2951 -0.9555 0.9555 -0.2951 55.0617 345.3764)" style="fill:#FCD462;" cx="154.934" cy="152.377" rx="4.116" ry="2.56"/>
	<path style="fill:#FCD462;" d="M177.712,144.952v-8.086h-22.956v8.202h0.08c-0.196,0.967-0.31,2.021-0.31,3.19
		c0,8.323,5.266,18.749,11.762,18.749c6.496,0,11.762-10.426,11.762-18.749C178.049,147.041,177.924,145.95,177.712,144.952z"/>
</g>
<path style="fill:#64798A;" d="M179.329,138.518c0,0-2.265-6.624-13.042-5.92c-10.777-0.705-13.042,5.92-13.042,5.92
	c-0.564,3.242,1.762,12.191,1.762,12.191h0.465v-8.623c0-1.026,0.274-2.055,0.89-2.876c1.559-2.08,3.36-0.693,3.36-0.693
	c3.024,3.101,6.565,2.748,6.565,2.748s3.541,0.352,6.565-2.748c0,0,1.801-1.387,3.36,0.693c0.615,0.821,0.89,1.85,0.89,2.876v8.623
	h0.465C177.568,150.709,179.893,141.76,179.329,138.518z"/>
<polygon style="fill:#E56353;" points="163.786,173.691 161.946,176.482 163.786,179.274 168.789,179.274 170.628,176.482 
	168.789,173.691 "/>
<g>
	<polygon style="fill:#E1E6E9;" points="156.524,170.614 159.232,166.655 164.776,173.673 160.305,181.506 	"/>
	<polygon style="fill:#E1E6E9;" points="176.803,170.322 173.343,166.655 167.799,173.673 171.731,180.562 	"/>
</g>
<polygon style="fill:#D15241;" points="168.789,179.274 166.287,179.274 163.786,179.274 161.352,198.363 165.482,206.566 
	171.222,198.363 "/>
<path style="fill:#FCD462;" d="M201.374,254.354l8.1-0.592c0,0,5.03,5.217,3.169,10.832c0,0-0.474,2.498-3.529,4.616
	c-0.841,0.583-2.08-0.035-1.933-0.967c0.421-2.676,0.633-6.95-1.882-8.512c0,0-1.258-0.973-1.459,0.84l-0.094,3.573
	c0.077,0.781-0.623,1.452-1.514,1.452c-0.874,0-1.568-0.647-1.517-1.414L201.374,254.354z"/>
<path style="fill:#3A556A;" d="M164.667,208.223v53.614c0,0,23.088-0.23,27.404-2.414l-5.755-52.458h3.401l8.632,47.4l13.21,0.115
	c0,0-6.932-58.837-10.856-65.401c0,0-3.662-9.897-12.59-12.771l-11.309-5.985l-10.237,28.697L164.667,208.223z"/>
<g>
	<path style="fill:#2F4859;" d="M176.803,170.322c0,0-14.562,26.592-11.784,38.596c0,0,6.829-19.939,14.468-26.45
		c0,0-1.677-1.317-4.282-2.035c0,0,4.959-1.69,6.116-2.809C181.32,177.624,179.988,172.153,176.803,170.322z"/>
	<polygon style="fill:#2F4859;" points="190.193,239.657 180.618,242.312 182.057,246.106 190.515,242.511 	"/>
</g>
<path style="fill:#FCD462;" d="M128.552,254.388l-8.1-0.592c0,0-5.03,5.217-3.169,10.832c0,0,0.474,2.498,3.529,4.616
	c0.841,0.583,2.08-0.035,1.933-0.967c-0.421-2.676-0.633-6.95,1.882-8.512c0,0,1.258-0.973,1.459,0.84l0.094,3.573
	c-0.077,0.781,0.623,1.452,1.514,1.452c0.874,0,1.568-0.647,1.517-1.414L128.552,254.388z"/>
<path style="fill:#64798A;" d="M164.963,208.223v53.614c0,0-23.087-0.23-27.404-2.414l5.755-52.458h-3.401l-8.632,47.4l-13.21,0.115
	c0,0,6.932-58.837,10.856-65.401c0,0,3.662-9.897,12.59-12.771l14.688-5.693l6.858,28.405L164.963,208.223z"/>
<g>
	<path style="fill:#3A556A;" d="M156.205,170.614c0,0,11.535,26.155,8.758,38.159c0,0-7.002-21.17-14.641-27.681
		c0,0,1.677-1.317,4.282-2.035c0,0-3.588-1.221-4.745-2.34C149.859,176.718,153.02,172.446,156.205,170.614z"/>
	<polygon style="fill:#3A556A;" points="139.733,239.691 149.308,242.346 147.869,246.14 139.411,242.545 	"/>
</g>
<g>
	<path style="fill:#DC8744;" d="M222.733,327.794v3.235c0,0.628-0.194,1.241-0.555,1.755l-4.131,5.875
		c-0.753,1.071-0.739,2.503,0.035,3.559l1.281,1.749c0.545,0.744,1.397,1.201,2.317,1.245l6.523,0.309
		c0.796,0.038,1.574-0.237,2.17-0.766l3.42-3.036c0.636-0.564,1.007-1.368,1.025-2.218l0.299-14.324L222.733,327.794z"/>
	<path style="fill:#DC8744;" d="M267.572,327.794v3.235c0,0.628,0.194,1.241,0.555,1.755l4.131,5.875
		c0.753,1.071,0.739,2.503-0.035,3.559l-1.281,1.749c-0.545,0.744-1.397,1.201-2.317,1.245l-6.523,0.309
		c-0.796,0.038-1.574-0.237-2.17-0.766l-3.42-3.036c-0.636-0.564-1.007-1.368-1.025-2.218l-0.299-14.324L267.572,327.794z"/>
</g>
<path style="fill:#2F4859;" d="M220.394,242.296l-1.527,84.12c0,0,8.791,3.014,18.586,0l5.691-74.711
	c0.048-0.766,0.684-1.363,1.451-1.363c0.78,0,1.422,0.616,1.453,1.396l3.712,76.018c0,0,8.857,2.595,20.377,0l0.422-85.459H220.394z
	"/>
<polygon style="fill:#EBF0F3;" points="239.499,142.221 235.641,147.91 244.013,192.48 250.181,172.351 257.451,151.674 
	257.872,146.546 254.914,142.221 "/>
<rect x="239.478" y="136.515" style="fill:#F6C358;" width="15.462" height="13.389"/>
<g>
	
		<ellipse transform="matrix(-0.9555 -0.2951 0.2951 -0.9555 470.271 324.2179)" style="fill:#FCD462;" cx="259.599" cy="126.626" rx="2.796" ry="4.495"/>
	
		<ellipse transform="matrix(-0.2951 -0.9555 0.9555 -0.2951 183.1277 388.3413)" style="fill:#FCD462;" cx="234.816" cy="126.618" rx="4.495" ry="2.796"/>
	<path style="fill:#FCD462;" d="M259.687,118.512v-8.833H234.61v8.96h0.088c-0.214,1.057-0.339,2.208-0.339,3.485
		c0,9.092,5.752,20.482,12.848,20.482c7.096,0,12.848-11.389,12.848-20.482C260.055,120.795,259.919,119.603,259.687,118.512z"/>
</g>
<path style="fill:#64798A;" d="M261.454,111.484c0,0-2.474-7.236-14.247-6.467c-11.773-0.77-14.247,6.467-14.247,6.467
	c-0.616,3.541,1.924,13.318,1.924,13.318h0.508v-9.419c0-1.121,0.3-2.244,0.972-3.142c1.703-2.272,3.67-0.757,3.67-0.757
	c3.303,3.387,7.172,3.002,7.172,3.002s3.868,0.385,7.172-3.002c0,0,1.968-1.516,3.67,0.757c0.672,0.897,0.972,2.02,0.972,3.142
	v9.419h0.508C259.529,124.802,262.07,115.025,261.454,111.484z"/>
<polygon style="fill:#E56353;" points="244.474,149.906 242.465,152.956 244.474,156.006 249.94,156.006 251.949,152.956 
	249.94,149.906 "/>
<g>
	<polygon style="fill:#E1E6E9;" points="236.541,146.546 239.499,142.221 245.555,149.887 240.671,158.445 	"/>
	<polygon style="fill:#E1E6E9;" points="258.694,146.227 254.914,142.221 248.858,149.887 253.153,157.413 	"/>
</g>
<polygon style="fill:#D15241;" points="249.94,156.006 247.207,156.006 244.474,156.006 241.816,176.858 246.327,185.819 
	252.598,176.858 "/>
<path style="fill:#FCD462;" d="M285.535,238.023l8.849-0.646c0,0,5.495,5.699,3.462,11.833c0,0-0.517,2.728-3.855,5.042
	c-0.918,0.637-2.272-0.038-2.112-1.057c0.46-2.923,0.692-7.592-2.056-9.298c0,0-1.374-1.063-1.594,0.918l-0.102,3.904
	c0.085,0.853-0.68,1.586-1.654,1.586c-0.955,0-1.713-0.707-1.657-1.545L285.535,238.023z"/>
<path style="fill:#3A556A;" d="M245.436,187.629v58.568c0,0,25.221-0.251,29.936-2.637l-6.287-57.306h3.715l9.43,51.78l14.431,0.126
	c0,0-7.572-64.274-11.859-71.444c0,0-4.001-10.812-13.753-13.951l-12.354-6.538l-11.183,31.349L245.436,187.629z"/>
<g>
	<path style="fill:#2F4859;" d="M258.694,146.227c0,0-15.907,29.049-12.873,42.162c0,0,7.46-21.782,15.804-28.894
		c0,0-1.832-1.439-4.678-2.223c0,0,5.417-1.846,6.681-3.069C263.629,154.204,262.173,148.227,258.694,146.227z"/>
	<polygon style="fill:#2F4859;" points="273.321,221.968 262.862,224.869 264.433,229.013 273.673,225.086 	"/>
</g>
<path style="fill:#FCD462;" d="M205.985,238.06l-8.849-0.646c0,0-5.495,5.699-3.462,11.833c0,0,0.517,2.728,3.855,5.042
	c0.918,0.637,2.272-0.038,2.112-1.057c-0.46-2.923-0.692-7.592,2.056-9.298c0,0,1.374-1.063,1.594,0.918l0.102,3.904
	c-0.085,0.853,0.68,1.586,1.654,1.586c0.955,0,1.713-0.707,1.657-1.545L205.985,238.06z"/>
<path style="fill:#64798A;" d="M245.76,187.629v58.568c0,0-25.221-0.251-29.936-2.637l6.287-57.306h-3.715l-9.43,51.78
	l-14.431,0.126c0,0,7.572-64.274,11.859-71.444c0,0,4.001-10.812,13.753-13.951l16.045-6.219l7.492,31.029L245.76,187.629z"/>
<g>
	<path style="fill:#3A556A;" d="M236.193,146.546c0,0,12.601,28.572,9.567,41.685c0,0-7.649-23.127-15.994-30.239
		c0,0,1.832-1.439,4.678-2.223c0,0-3.919-1.334-5.184-2.556C229.26,153.214,232.714,148.546,236.193,146.546z"/>
	<polygon style="fill:#3A556A;" points="218.199,222.005 228.658,224.906 227.087,229.05 217.847,225.123 	"/>
</g>
<rect x="137.011" y="365.363" style="fill:#3EA69B;" width="217.498" height="21.181"/>
<rect x="137.011" y="259.031" style="fill:#44C4A1;" width="217.498" height="112.794"/>
<path style="fill:#FFFFFF;" d="M338.691,266.855H152.829c0,4.322-3.541,7.826-7.909,7.826v81.474c4.368,0,7.909,3.503,7.909,7.826
	h185.862c0-4.322,3.541-7.826,7.909-7.826v-81.474C342.233,274.681,338.691,271.177,338.691,266.855z"/>
<ellipse style="fill:#44C4A1;" cx="245.76" cy="315.443" rx="31.299" ry="39.608"/>
<path style="fill:#FFFFFF;" d="M244.16,345.287v-5.26c-6.656-0.672-12.63-3.29-17.917-7.853l5.316-6.269
	c4.078,3.507,8.274,5.595,12.601,6.269v-13.981c-5.488-1.296-9.507-3.003-12.055-5.117s-3.823-5.249-3.823-9.404
	s1.464-7.553,4.404-10.198c2.94-2.642,6.763-4.082,11.475-4.322v-3.604h4.659v3.674c5.34,0.387,10.39,2.187,15.149,5.407
	l-4.736,6.63c-3.206-2.258-6.674-3.651-10.414-4.181v13.547h0.219c5.583,1.299,9.685,3.052,12.304,5.26
	c2.626,2.211,3.936,5.419,3.936,9.621c0,4.205-1.505,7.63-4.516,10.269c-3.011,2.645-6.988,4.085-11.943,4.325v5.187H244.16z
	 M239.021,298.773c-1.239,1.079-1.855,2.425-1.855,4.035c0,1.61,0.486,2.882,1.458,3.818c0.966,0.938,2.815,1.839,5.536,2.704
	v-12.468C241.973,297.055,240.26,297.691,239.021,298.773z M254.354,330.371c1.357-1.102,2.039-2.495,2.039-4.178
	c0-1.68-0.533-3.014-1.6-4c-1.073-0.985-3.064-1.909-5.974-2.774v12.969C251.148,332.151,252.991,331.476,254.354,330.371z"/>
<g>
	<ellipse style="fill:#44C4A1;" cx="319.59" cy="315.443" rx="9.211" ry="9.114"/>
	<ellipse style="fill:#44C4A1;" cx="171.95" cy="315.443" rx="9.211" ry="9.114"/>
</g>
<rect x="137.011" y="342.886" style="fill:#3EA69B;" width="217.498" height="21.181"/>
<rect x="137.011" y="236.544" style="fill:#44C4A1;" width="217.498" height="112.794"/>
<path style="fill:#FFFFFF;" d="M338.691,244.363H152.829c0,4.322-3.541,7.826-7.909,7.826v81.474c4.368,0,7.909,3.503,7.909,7.826
	h185.862c0-4.322,3.541-7.826,7.909-7.826v-81.474C342.233,252.189,338.691,248.685,338.691,244.363z"/>
<ellipse style="fill:#44C4A1;" cx="245.76" cy="292.915" rx="31.299" ry="39.608"/>
<path style="fill:#FFFFFF;" d="M244.16,322.795v-5.26c-6.656-0.671-12.63-3.29-17.917-7.853l5.316-6.269
	c4.078,3.507,8.274,5.595,12.601,6.269v-13.981c-5.488-1.296-9.507-3.003-12.055-5.117s-3.823-5.249-3.823-9.404
	c0-4.155,1.464-7.553,4.404-10.198c2.94-2.642,6.763-4.082,11.475-4.322v-3.604h4.659v3.674c5.34,0.387,10.39,2.187,15.149,5.407
	l-4.736,6.63c-3.206-2.258-6.674-3.651-10.414-4.181v13.547h0.219c5.583,1.299,9.685,3.052,12.304,5.26
	c2.626,2.211,3.936,5.419,3.936,9.621c0,4.205-1.505,7.63-4.516,10.269c-3.011,2.645-6.988,4.085-11.943,4.325v5.187H244.16z
	 M239.021,276.281c-1.239,1.079-1.855,2.425-1.855,4.035c0,1.61,0.486,2.882,1.458,3.818c0.966,0.938,2.815,1.839,5.536,2.704
	v-12.468C241.973,274.563,240.26,275.199,239.021,276.281z M254.354,307.879c1.357-1.103,2.039-2.495,2.039-4.178
	c0-1.68-0.533-3.014-1.6-4c-1.073-0.985-3.064-1.909-5.974-2.774v12.969C251.148,309.658,252.991,308.984,254.354,307.879z"/>
<g>
	<ellipse style="fill:#44C4A1;" cx="319.59" cy="292.915" rx="9.211" ry="9.114"/>
	<ellipse style="fill:#44C4A1;" cx="171.95" cy="292.915" rx="9.211" ry="9.114"/>
</g>
<rect x="137.011" y="320.41" style="fill:#3EA69B;" width="217.498" height="21.181"/>
<rect x="137.011" y="214.047" style="fill:#44C4A1;" width="217.498" height="112.794"/>
<path style="fill:#FFFFFF;" d="M338.691,221.871H152.829c0,4.322-3.541,7.826-7.909,7.826v81.474c4.368,0,7.909,3.503,7.909,7.826
	h185.862c0-4.322,3.541-7.826,7.909-7.826v-81.474C342.233,229.697,338.691,226.193,338.691,221.871z"/>
<ellipse style="fill:#44C4A1;" cx="245.76" cy="270.433" rx="31.299" ry="39.608"/>
<path style="fill:#FFFFFF;" d="M244.16,300.303v-5.26c-6.656-0.671-12.63-3.29-17.917-7.853l5.316-6.269
	c4.078,3.507,8.274,5.595,12.601,6.269v-13.981c-5.488-1.296-9.507-3.003-12.055-5.117s-3.823-5.249-3.823-9.404
	c0-4.155,1.464-7.553,4.404-10.198c2.94-2.642,6.763-4.082,11.475-4.322v-3.604h4.659v3.674c5.34,0.387,10.39,2.187,15.149,5.407
	l-4.736,6.63c-3.206-2.258-6.674-3.651-10.414-4.181v13.547h0.219c5.583,1.299,9.685,3.052,12.304,5.26
	c2.626,2.211,3.936,5.419,3.936,9.621c0,4.205-1.505,7.63-4.516,10.269c-3.011,2.645-6.988,4.085-11.943,4.325v5.187H244.16z
	 M239.021,253.789c-1.239,1.079-1.855,2.425-1.855,4.035c0,1.61,0.486,2.882,1.458,3.818c0.966,0.938,2.815,1.839,5.536,2.704
	v-12.468C241.973,252.071,240.26,252.707,239.021,253.789z M254.354,285.387c1.357-1.103,2.039-2.495,2.039-4.178
	c0-1.68-0.533-3.014-1.6-4c-1.073-0.985-3.064-1.909-5.974-2.774v12.969C251.148,287.166,252.991,286.492,254.354,285.387z"/>
<g>
	<ellipse style="fill:#44C4A1;" cx="319.59" cy="270.433" rx="9.211" ry="9.114"/>
	<ellipse style="fill:#44C4A1;" cx="171.95" cy="270.433" rx="9.211" ry="9.114"/>
</g>
<rect x="225.843" y="326.82" style="fill:#FCD462;" width="39.803" height="59.74"/>
<g>
	<rect x="229.125" y="326.82" style="fill:#DC8744;" width="3.22" height="59.74"/>
	<rect x="259.174" y="326.82" style="fill:#DC8744;" width="3.22" height="59.74"/>
</g>
<g>
</g>
<g>
</g>
<g>
</g>
<g>
</g>
<g>
</g>
<g>
</g>
<g>
</g>
<g>
</g>
<g>
</g>
<g>
</g>
<g>
</g>
<g>
</g>
<g>
</g>
<g>
</g>
<g>
</g>
</svg>
